<svg width="27" height="18" viewBox="0 0 27 18" fill="none" xmlns="http://www.w3.org/2000/svg">
<path d="M20.1301 8.40732L20.1776 8.52614L20.3024 8.49792C20.6387 8.4219 20.9883 8.38152 21.3473 8.38152C23.9576 8.38152 26.0815 10.5054 26.0815 13.1158C26.0815 15.7261 23.9575 17.85 21.3472 17.85C18.7369 17.85 16.6129 15.7261 16.6129 13.1158C16.6129 11.3925 17.5387 9.88102 18.92 9.05269L19.0296 8.98697L18.9821 8.86834L17.9132 6.1961L17.8287 5.98489L17.6679 6.14575L16.7872 7.02645L16.7872 7.02646C15.3495 8.46442 14.5574 10.3767 14.5574 12.4096V13.1158C14.5574 13.4573 14.2805 13.7343 13.9389 13.7343H9.70782H9.57975L9.55967 13.8608C9.20133 16.1185 7.24095 17.85 4.88424 17.85C2.27394 17.85 0.15 15.7261 0.15 13.1158C0.15 10.5055 2.27394 8.38152 4.88424 8.38152C5.38067 8.38152 5.85917 8.45851 6.30885 8.60069L6.43096 8.6393L6.48824 8.52475L7.39292 6.71544L7.43796 6.62537L7.37164 6.54958L5.78023 4.73085L5.73541 4.67962H5.66734H4.88424C4.54266 4.67962 4.26574 4.4027 4.26574 4.06112C4.26574 3.71955 4.54266 3.44262 4.88424 3.44262H8.17686C8.51843 3.44262 8.79536 3.71955 8.79536 4.06112C8.79536 4.4027 8.51843 4.67962 8.17686 4.67962H7.70971H7.3801L7.59661 4.92815L13.1386 11.2898L13.3562 11.5396L13.4003 11.2113C13.6571 9.30203 14.5264 7.53814 15.9126 6.15176L17.2591 4.80514L17.329 4.73521L17.2923 4.64339L16.7515 3.29083L16.7515 3.2908C16.2889 2.1347 15.1846 1.387 13.9393 1.387C13.5977 1.387 13.3206 1.11002 13.3206 0.768502C13.3206 0.426874 13.5974 0.15 13.9389 0.15C15.694 0.15 17.2482 1.20224 17.9 2.83153L20.1301 8.40732ZM5.78767 9.92583L5.87243 9.75631L5.68798 9.71276C5.43001 9.65185 5.1611 9.61853 4.88424 9.61853C2.95576 9.61853 1.387 11.1872 1.387 13.1158C1.387 15.0443 2.95576 16.613 4.88424 16.613C6.53679 16.613 7.92355 15.461 8.2874 13.9187L8.33091 13.7343H8.14141H4.88424C4.66985 13.7343 4.47079 13.6233 4.3581 13.4409L4.3581 13.4409C4.2454 13.2586 4.23514 13.0308 4.331 12.8392L4.331 12.8392L5.78767 9.92583ZM8.14146 12.4973H8.33097L8.28745 12.3128C8.111 11.565 7.69463 10.9093 7.1239 10.4322L6.97836 10.3105L6.89353 10.4802L5.99356 12.2802L5.88502 12.4973H6.12773H8.14146ZM9.55972 12.3708L9.5798 12.4973H9.70787H12.2202H12.5495L12.3333 12.2488L8.46395 7.80265L8.31684 7.63361L8.21663 7.83404L7.59368 9.07993L7.53653 9.19425L7.64032 9.26883C8.64607 9.99149 9.35764 11.0977 9.55972 12.3708ZM19.5639 10.3226L19.4934 10.1464L19.3383 10.2557C18.4396 10.8888 17.8501 11.9342 17.8501 13.1158C17.8501 15.0442 19.4188 16.613 21.3473 16.613C23.2758 16.613 24.8445 15.0442 24.8445 13.1158C24.8445 11.1873 23.2758 9.61853 21.3473 9.61848C21.171 9.61848 20.9979 9.63192 20.8288 9.65716L20.6412 9.68516L20.7117 9.86123L21.9216 12.886C22.0485 13.2032 21.8942 13.5631 21.5771 13.69L21.577 13.69C21.2604 13.8168 20.9001 13.6629 20.7731 13.3455L19.5639 10.3226Z" fill="#86858A" stroke="white" stroke-width="0.3"/>
</svg>
