<svg width="27" height="13" viewBox="0 0 27 13" fill="none" xmlns="http://www.w3.org/2000/svg">
<path d="M5.52 0.704H6.88L8.384 4.656L9.904 0.704H11.264L9.296 5.648L11.248 10.336L15.088 0.639999H16.656L11.904 12H10.656L8.4 6.64L6.128 12H4.88L0.144 0.639999H1.696L5.552 10.336L7.488 5.648L5.52 0.704ZM16.9834 6.24C16.9834 5.54667 17.1007 4.86933 17.3354 4.208C17.5807 3.536 17.9327 2.928 18.3914 2.384C18.8607 1.82933 19.4314 1.392 20.1034 1.072C20.7754 0.741333 21.538 0.575999 22.3914 0.575999C23.4047 0.575999 24.274 0.810666 24.9994 1.28C25.7247 1.73867 26.2634 2.33067 26.6154 3.056L25.4794 3.792C25.2554 3.312 24.9674 2.93333 24.6154 2.656C24.274 2.368 23.9007 2.16533 23.4954 2.048C23.1007 1.93067 22.7114 1.872 22.3274 1.872C21.698 1.872 21.138 2 20.6474 2.256C20.1674 2.512 19.762 2.85333 19.4314 3.28C19.1007 3.70667 18.85 4.18667 18.6794 4.72C18.5194 5.24267 18.4394 5.77067 18.4394 6.304C18.4394 6.89067 18.5354 7.456 18.7274 8C18.93 8.544 19.2074 9.024 19.5594 9.44C19.9114 9.856 20.3274 10.1867 20.8074 10.432C21.2874 10.6773 21.81 10.8 22.3754 10.8C22.77 10.8 23.1754 10.7307 23.5914 10.592C24.0074 10.4533 24.3967 10.24 24.7594 9.952C25.122 9.65333 25.41 9.26933 25.6234 8.8L26.8234 9.456C26.5887 10.0213 26.226 10.5013 25.7354 10.896C25.2447 11.2907 24.6954 11.5893 24.0874 11.792C23.49 11.9947 22.898 12.096 22.3114 12.096C21.5327 12.096 20.818 11.9307 20.1674 11.6C19.5167 11.2587 18.9514 10.8107 18.4714 10.256C18.002 9.69067 17.634 9.06133 17.3674 8.368C17.1114 7.664 16.9834 6.95467 16.9834 6.24Z" fill="#86858A"/>
</svg>
