<svg width="31" height="25" viewBox="0 0 31 25" fill="none" xmlns="http://www.w3.org/2000/svg">
<path d="M28.8918 17.0213V12.3162C28.8918 11.3365 28.5153 10.4432 27.8998 9.77258C27.9882 9.76205 28.0765 9.74904 28.1654 9.73108C29.5665 9.45323 30.5024 8.4038 30.296 7.34229C30.2135 6.91794 29.9613 6.55336 29.5665 6.28822C29.0022 5.90939 28.2212 5.7827 27.4242 5.94068C26.8918 6.04661 26.4266 6.26375 26.0656 6.55088L25.1043 2.48759C24.8235 1.30063 23.7819 0.471436 22.5715 0.471436H8.27251C7.06236 0.471436 6.02079 1.30063 5.73972 2.48759L4.77841 6.55057C4.41738 6.26375 3.95254 6.0463 3.41983 5.94068C2.62277 5.78239 1.84183 5.90939 1.27751 6.28822C0.882697 6.55336 0.63013 6.91794 0.547698 7.34229C0.341616 8.4038 1.27751 9.45323 2.67855 9.73108C2.76749 9.74873 2.85581 9.76174 2.94413 9.77258C2.32837 10.4432 1.95215 11.3365 1.95215 12.3162V17.0213C1.17028 17.2617 0.60038 17.9902 0.60038 18.8495C0.60038 19.7041 1.16439 20.4295 1.93976 20.6739V22.8375C1.93976 23.732 2.66801 24.46 3.56269 24.46H5.65542C6.5501 24.46 7.27836 23.732 7.27836 22.8375V20.7622H9.37946C10.1452 20.7622 10.1465 19.5727 9.37946 19.5727H2.514C2.11516 19.5727 1.79039 19.2481 1.79039 18.8495C1.79039 18.4508 2.11516 18.1262 2.514 18.1262H28.33C28.7288 18.1262 29.0536 18.4508 29.0536 18.8495C29.0536 19.2481 28.7288 19.5727 28.33 19.5727H12.6321C11.8664 19.5727 11.8651 20.7622 12.6321 20.7622H23.684V22.8375C23.684 23.732 24.4123 24.46 25.3069 24.46H27.3997C28.2947 24.46 29.0226 23.732 29.0226 22.8375V20.6318C29.736 20.3536 30.2433 19.6601 30.2433 18.8495C30.2433 17.9902 29.6737 17.2617 28.8918 17.0213ZM6.08835 22.8378C6.08835 23.0763 5.89404 23.2705 5.65542 23.2705H3.56269C3.32407 23.2705 3.12976 23.0763 3.12976 22.8378V20.7687H6.08835V22.8378ZM27.656 7.1075C27.8001 7.0787 27.9448 7.06476 28.0842 7.06476C28.4041 7.06476 28.6975 7.13786 28.9027 7.2757C29.031 7.36181 29.1069 7.46031 29.128 7.56872C29.1949 7.91378 28.6985 8.41279 27.9336 8.56456C27.4592 8.65873 26.9813 8.5943 26.6866 8.39637C26.5583 8.31026 26.4827 8.21145 26.4616 8.10304C26.3947 7.75829 26.8911 7.25897 27.656 7.1075ZM1.71601 7.56872C1.73708 7.46031 1.8127 7.36181 1.941 7.2757C2.14615 7.13786 2.43993 7.06476 2.75943 7.06476C2.8992 7.06476 3.04392 7.0787 3.18802 7.1075C3.95285 7.25897 4.4493 7.75829 4.38237 8.10304C4.36129 8.21145 4.28568 8.31026 4.15738 8.39637C3.86267 8.5943 3.38481 8.65873 2.91035 8.56456C2.14553 8.41279 1.64907 7.91378 1.71601 7.56872ZM3.14216 16.9371V12.3162C3.14216 10.9295 4.24353 9.79582 5.61793 9.74192H19.5339C20.308 9.74192 20.3098 8.54969 19.5339 8.54969C15.4311 8.54969 6.09331 8.54257 5.52744 8.55248L6.8978 2.76141C7.0512 2.11342 7.61645 1.66087 8.27251 1.66087H22.5715C23.2275 1.66087 23.7928 2.11342 23.9462 2.76141L25.3162 8.55248C24.4733 8.55961 23.6295 8.54969 22.7862 8.54969C22.0121 8.54969 22.0103 9.74192 22.7862 9.74192H25.2261C26.6004 9.79582 27.7018 10.9295 27.7018 12.3162V16.9371H3.14216ZM27.8326 22.8378C27.8326 23.0763 27.6386 23.2705 27.3997 23.2705H25.3072C25.0683 23.2705 24.8743 23.0763 24.8743 22.8378V20.7687H27.8329V22.8378H27.8326Z" fill="#17143B"/>
</svg>
