<?xml version="1.0" encoding="UTF-8" standalone="no" ?>
<!DOCTYPE svg PUBLIC "-//W3C//DTD SVG 1.1//EN" "http://www.w3.org/Graphics/SVG/1.1/DTD/svg11.dtd">
<svg xmlns="http://www.w3.org/2000/svg" xmlns:xlink="http://www.w3.org/1999/xlink" version="1.1" width="24" height="24" viewBox="0 0 24 24" xml:space="preserve">
<desc>Created with Fabric.js 4.6.0</desc>
<defs>
</defs>
<g transform="matrix(1 0 0 1 12 12)" id="VrvkxByStp7XEOZrL6lRI"  >
<path style="stroke: none; stroke-width: 1; stroke-dasharray: none; stroke-linecap: butt; stroke-dashoffset: 0; stroke-linejoin: miter; stroke-miterlimit: 4; fill: rgb(0,0,0); fill-rule: nonzero; opacity: 1;" vector-effect="non-scaling-stroke"  transform=" translate(-9.5, -12)" d="M 9.78203 5.53846 C 10.8359 5.53846 12.157 4.8061 12.9437 3.82962 C 13.6562 2.94469 14.1758 1.70884 14.1758 0.472982 C 14.1758 0.30515 14.1609 0.137317 14.1313 0 C 12.9586 0.0457724 11.5484 0.808646 10.7023 1.8309 C 10.0344 2.60903 9.42578 3.82962 9.42578 5.08074 C 9.42578 5.26383 9.45547 5.44692 9.47031 5.50795 C 9.54453 5.5232 9.66328 5.53846 9.78203 5.53846 Z M 6.07109 24 C 7.51094 24 8.14922 23.0083 9.94531 23.0083 C 11.7711 23.0083 12.1719 23.9695 13.775 23.9695 C 15.3484 23.9695 16.4023 22.4743 17.3969 21.0095 C 18.5102 19.3312 18.9703 17.6834 19 17.6071 C 18.8961 17.5766 15.8828 16.3102 15.8828 12.7552 C 15.8828 9.67323 18.2578 8.28481 18.3914 8.178 C 16.818 5.85887 14.4281 5.79784 13.775 5.79784 C 12.0086 5.79784 10.5688 6.89638 9.66328 6.89638 C 8.68359 6.89638 7.39219 5.85887 5.86328 5.85887 C 2.95391 5.85887 0 8.33058 0 12.9994 C 0 15.8983 1.09844 18.965 2.44922 20.9485 C 3.60703 22.6268 4.61641 24 6.07109 24 Z" stroke-linecap="round" />
</g>
</svg>