<svg width="16" height="16" viewBox="0 0 16 16" fill="none" xmlns="http://www.w3.org/2000/svg">
<path d="M3.90261 8.76422L8.41656 13.2782C8.62473 13.4937 8.73991 13.7824 8.73731 14.082C8.7347 14.3816 8.61452 14.6683 8.40264 14.8801C8.19076 15.092 7.90414 15.2122 7.60451 15.2148C7.30488 15.2174 7.01621 15.1022 6.80068 14.8941L0.336016 8.42939C0.229527 8.32351 0.145019 8.19762 0.0873528 8.05896C0.0296869 7.92031 9.53674e-07 7.77162 9.53674e-07 7.62145C9.53674e-07 7.47128 0.0296869 7.32259 0.0873528 7.18394C0.145019 7.04528 0.229527 6.91939 0.336016 6.81351L6.80068 0.348845C6.9061 0.239698 7.0322 0.152638 7.17162 0.0927477C7.31104 0.032856 7.461 0.00133228 7.61273 1.33514e-05C7.76447 -0.00130558 7.91495 0.0276089 8.05539 0.0850687C8.19583 0.142528 8.32343 0.227382 8.43073 0.33468C8.53802 0.441978 8.62288 0.569571 8.68034 0.710013C8.7378 0.850456 8.76671 1.00094 8.76539 1.15267C8.76407 1.30441 8.73255 1.45436 8.67266 1.59379C8.61277 1.73321 8.52571 1.85931 8.41656 1.96472L3.90261 6.47868H14.8572C15.1603 6.47868 15.451 6.59908 15.6653 6.81339C15.8796 7.0277 16 7.31837 16 7.62145C16 7.92453 15.8796 8.2152 15.6653 8.42951C15.451 8.64382 15.1603 8.76422 14.8572 8.76422H3.90261Z" fill="#4E5AFE"/>
</svg>
