<svg width="40" height="40" viewBox="0 0 40 40" fill="none" xmlns="http://www.w3.org/2000/svg">
<circle cx="20" cy="20" r="20" fill="#4E5AFE"/>
<path d="M12.19 25V15.06H19.862V25H18.602V16.18H13.45V25H12.19ZM22.3788 25V15.06H26.5228C26.9615 15.06 27.3628 15.1533 27.7268 15.34C28.0908 15.5173 28.4082 15.76 28.6788 16.068C28.9495 16.3667 29.1595 16.7073 29.3088 17.09C29.4582 17.4633 29.5328 17.846 29.5328 18.238C29.5328 18.7793 29.4115 19.2973 29.1688 19.792C28.9262 20.2773 28.5855 20.674 28.1468 20.982C27.7082 21.2807 27.1948 21.43 26.6068 21.43H23.6388V25H22.3788ZM23.6388 20.31H26.5368C26.8822 20.31 27.1808 20.2167 27.4328 20.03C27.6942 19.8433 27.8948 19.5913 28.0348 19.274C28.1842 18.9567 28.2588 18.6113 28.2588 18.238C28.2588 17.846 28.1748 17.496 28.0068 17.188C27.8388 16.8707 27.6195 16.6233 27.3488 16.446C27.0782 16.2687 26.7795 16.18 26.4528 16.18H23.6388V20.31Z" fill="white"/>
</svg>
