<svg width="10" height="8" viewBox="0 0 10 8" fill="none" xmlns="http://www.w3.org/2000/svg">
<path d="M9.70585 0.256563C9.88691 0.42773 9.99257 0.663795 9.99962 0.912854C10.0067 1.16191 9.91452 1.40357 9.74344 1.58471L4.41833 7.22306C4.33202 7.31428 4.22831 7.38727 4.11332 7.43773C3.99833 7.48819 3.87439 7.51509 3.74883 7.51684C3.62326 7.51859 3.49862 7.49516 3.38227 7.44793C3.26591 7.4007 3.1602 7.33063 3.07139 7.24185L0.252212 4.42268C0.0862189 4.24454 -0.00414904 4.00892 0.000146405 3.76547C0.00444185 3.52202 0.103065 3.28973 0.275239 3.11756C0.447413 2.94539 0.679695 2.84676 0.923147 2.84247C1.1666 2.83817 1.40222 2.92854 1.58036 3.09453L3.71667 5.22959L8.3777 0.294152C8.54887 0.113095 8.78493 0.0074254 9.03399 0.000376571C9.28305 -0.00667226 9.52472 0.085477 9.70585 0.256563Z" fill="white"/>
</svg>
