<svg width="24" height="20" viewBox="0 0 24 20" fill="none" xmlns="http://www.w3.org/2000/svg">
<path d="M4.03034 0.139189C3.994 0.098227 3.94989 0.0648844 3.90057 0.0410942C3.85125 0.0173041 3.7977 0.00353913 3.74302 0.000597529C3.68835 -0.00234407 3.63363 0.00559609 3.58204 0.0239577C3.53045 0.0423193 3.48302 0.0707372 3.4425 0.107564C3.40198 0.144391 3.36916 0.188895 3.34597 0.238497C3.32277 0.288098 3.30965 0.34181 3.30736 0.39652C3.30508 0.45123 3.31367 0.505849 3.33265 0.557213C3.35163 0.608576 3.38061 0.655662 3.41793 0.695741L5.75037 3.26147C1.79317 5.48126 0.107992 9.19009 0.0356813 9.35292C0.012156 9.40582 0 9.46307 0 9.52097C0 9.57887 0.012156 9.63612 0.0356813 9.68902C0.0707503 9.76785 0.916234 11.6427 2.81089 13.5372C4.56506 15.2913 7.58338 17.3822 12 17.3822C13.8968 17.3946 15.7723 16.9815 17.4885 16.1734L19.9697 18.9026C20.006 18.9436 20.0501 18.977 20.0994 19.0007C20.1487 19.0245 20.2023 19.0383 20.257 19.0412C20.3117 19.0442 20.3664 19.0362 20.418 19.0179C20.4695 18.9995 20.517 18.9711 20.5575 18.9343C20.598 18.8974 20.6308 18.8529 20.654 18.8033C20.6772 18.7537 20.6904 18.7 20.6926 18.6453C20.6949 18.5906 20.6863 18.536 20.6673 18.4846C20.6484 18.4333 20.6194 18.3862 20.5821 18.3461L4.03034 0.139189ZM14.183 12.5374C13.441 13.0746 12.5271 13.3195 11.6159 13.2252C10.7048 13.1309 9.86034 12.7041 9.24415 12.0263C8.62797 11.3484 8.28328 10.4673 8.276 9.55128C8.26873 8.63528 8.59938 7.74874 9.20472 7.06123L14.183 12.5374ZM12 16.5546C8.69203 16.5546 5.80448 15.3497 3.41751 12.9735C2.39753 11.9598 1.53947 10.7953 0.873406 9.52081C1.25048 8.7734 2.95117 5.71392 6.32244 3.89074L8.64558 6.44623C7.87821 7.28316 7.45142 8.37672 7.44902 9.5122C7.44661 10.6477 7.86875 11.743 8.63257 12.5832C9.39638 13.4234 10.4467 13.9477 11.5773 14.0532C12.7078 14.1587 13.837 13.8377 14.743 13.1533L16.9044 15.5309C15.3607 16.2162 13.6889 16.5651 12 16.5546ZM23.9643 9.68902C23.9223 9.78337 22.91 12.0253 20.615 14.0808C20.5745 14.1171 20.5273 14.145 20.476 14.163C20.4247 14.181 20.3704 14.1887 20.3161 14.1858C20.2619 14.1828 20.2087 14.1691 20.1597 14.1456C20.1107 14.1221 20.0669 14.0891 20.0306 14.0486C19.9943 14.0082 19.9664 13.9609 19.9484 13.9097C19.9304 13.8584 19.9227 13.8041 19.9256 13.7498C19.9286 13.6955 19.9423 13.6424 19.9658 13.5934C19.9893 13.5444 20.0223 13.5005 20.0628 13.4643C21.3104 12.3424 22.3479 11.0071 23.1266 9.52092C22.4605 8.24624 21.6024 7.0815 20.5824 6.0675C18.1954 3.69057 15.308 2.4856 12 2.4856C11.3061 2.48473 10.6133 2.54113 9.92865 2.65423C9.82101 2.67097 9.71111 2.6446 9.62279 2.58083C9.53447 2.51705 9.47486 2.42103 9.4569 2.31358C9.43894 2.20614 9.46407 2.09594 9.52685 2.00691C9.58962 1.91788 9.68497 1.85719 9.7922 1.83802C10.5219 1.7173 11.2604 1.65706 12 1.65791C16.4167 1.65791 19.4349 3.74923 21.1891 5.50371C23.0839 7.39847 23.9292 9.27388 23.9643 9.35282C23.9878 9.40572 24 9.46297 24 9.52087C24 9.57876 23.9878 9.63602 23.9643 9.68892V9.68902ZM12.7014 5.86268C12.5936 5.84215 12.4983 5.77964 12.4366 5.68888C12.3748 5.59813 12.3517 5.48657 12.3722 5.37874C12.3927 5.27092 12.4552 5.17566 12.546 5.11393C12.6368 5.0522 12.7483 5.02905 12.8561 5.04957C13.8228 5.23729 14.703 5.73239 15.3654 6.46107C16.0278 7.18975 16.437 8.11299 16.532 9.09316C16.537 9.14726 16.5314 9.20182 16.5154 9.25373C16.4993 9.30565 16.4732 9.35389 16.4385 9.39572C16.4039 9.43755 16.3613 9.47213 16.3132 9.4975C16.2652 9.52287 16.2126 9.53852 16.1585 9.54357C16.1455 9.5448 16.1325 9.54542 16.1194 9.54544C16.0164 9.54529 15.9172 9.50675 15.8411 9.43735C15.765 9.36794 15.7176 9.27266 15.708 9.17013C15.6304 8.36838 15.2957 7.6132 14.7539 7.01717C14.212 6.42114 13.4921 6.01619 12.7014 5.86268Z" fill="#86858A" fill-opacity="0.7"/>
</svg>
