<svg width="18" height="20" viewBox="0 0 18 20" fill="none" xmlns="http://www.w3.org/2000/svg">
<path d="M15.6804 1.83019C13.2401 -0.610064 9.26626 -0.610064 6.8286 1.83019L0.0673773 8.58623C0.0233387 8.63027 2.39489e-05 8.68985 2.39489e-05 8.75202C2.39489e-05 8.8142 0.0233387 8.87378 0.0673773 8.91782L1.02327 9.87371C1.06697 9.91722 1.12611 9.94164 1.18777 9.94164C1.24943 9.94164 1.30857 9.91722 1.35227 9.87371L8.11349 3.11767C8.95281 2.27835 10.0693 1.81724 11.2558 1.81724C12.4422 1.81724 13.5587 2.27835 14.3955 3.11767C15.2348 3.957 15.6959 5.07351 15.6959 6.25737C15.6959 7.44382 15.2348 8.55774 14.3955 9.39706L7.50472 16.2852L6.38821 17.4017C5.34424 18.4457 3.64746 18.4457 2.60348 17.4017C2.09833 16.8966 1.82115 16.2256 1.82115 15.5107C1.82115 14.7957 2.09833 14.1247 2.60348 13.6196L9.43983 6.78583C9.61339 6.61486 9.84136 6.51901 10.0849 6.51901H10.0875C10.331 6.51901 10.5563 6.61486 10.7273 6.78583C10.9009 6.95939 10.9941 7.18736 10.9941 7.43087C10.9941 7.67178 10.8983 7.89975 10.7273 8.07072L5.13959 13.6533C5.09555 13.6973 5.07223 13.7569 5.07223 13.8191C5.07223 13.8812 5.09555 13.9408 5.13959 13.9848L6.09548 14.9407C6.13918 14.9842 6.19832 15.0087 6.25998 15.0087C6.32164 15.0087 6.38078 14.9842 6.42448 14.9407L12.0096 9.35561C12.5251 8.8401 12.8075 8.15621 12.8075 7.42828C12.8075 6.70034 12.5225 6.01386 12.0096 5.50094C10.9449 4.43624 9.21445 4.43883 8.14976 5.50094L7.48659 6.1667L1.316 12.3347C0.897196 12.751 0.565217 13.2464 0.339316 13.792C0.113416 14.3377 -0.00191094 14.9227 2.39489e-05 15.5132C2.39489e-05 16.7126 0.468906 17.8395 1.316 18.6866C2.19418 19.5622 3.34437 20 4.49455 20C5.64474 20 6.79492 19.5622 7.67051 18.6866L15.6804 10.6819C16.859 9.50068 17.5118 7.92824 17.5118 6.25737C17.5144 4.5839 16.8616 3.01146 15.6804 1.83019Z" fill="#4E5AFE"/>
</svg>
