<svg width="24" height="14" viewBox="0 0 24 14" fill="none" xmlns="http://www.w3.org/2000/svg">
<path d="M8.54602 1.45459H14.7278V12.4546H8.54602V1.45459Z" fill="#FF5F00"/>
<path d="M8.89708 7C8.89708 4.76388 9.97689 2.78012 11.6364 1.49743C10.4167 0.564041 8.8778 0 7.19825 0C3.21923 0 0 3.13024 0 7C0 10.8689 3.21923 14 7.19825 14C8.87701 14 10.4167 13.4359 11.6364 12.5026C9.97689 11.2383 8.89708 9.23612 8.89708 7Z" fill="#EB001B"/>
<path d="M23.1817 7C23.1817 10.8689 19.9876 14 16.0405 14C14.374 14 12.8464 13.4359 11.6362 12.5026C13.3027 11.2191 14.3541 9.23612 14.3541 7C14.3541 4.76388 13.2827 2.78012 11.6362 1.49743C12.8464 0.564041 14.374 0 16.0405 0C19.9876 0 23.1817 3.15027 23.1817 7Z" fill="#F79E1B"/>
</svg>
