<svg width="38" height="12" viewBox="0 0 38 12" fill="none" xmlns="http://www.w3.org/2000/svg">
<path d="M24.123 0C21.4933 0 19.1433 1.36303 19.1433 3.88133C19.1433 6.76935 23.3111 6.96882 23.3111 8.41968C23.3111 9.03058 22.6111 9.57742 21.4153 9.57742C19.7184 9.57742 18.4501 8.81331 18.4501 8.81331L17.9074 11.3546C17.9074 11.3546 19.3685 12 21.3082 12C24.1834 12 26.4457 10.57 26.4457 8.00868C26.4457 4.95697 22.2605 4.76343 22.2605 3.41679C22.2605 2.93824 22.8352 2.41389 24.0275 2.41389C25.3728 2.41389 26.4703 2.96961 26.4703 2.96961L27.0014 0.515195C27.0014 0.515195 25.8072 0 24.123 0ZM0.0636758 0.185239L0 0.555717C0 0.555717 1.10632 0.758192 2.10275 1.16208C3.38573 1.62523 3.47712 1.89485 3.6932 2.73227L6.04776 11.809H9.20405L14.0666 0.185239H10.9175L7.79305 8.08828L6.51809 1.38929C6.40116 0.622597 5.8089 0.185239 5.08394 0.185239H0.0636758ZM15.3329 0.185239L12.8625 11.809H15.8654L18.3271 0.185239H15.3329ZM32.081 0.185239C31.3569 0.185239 30.9733 0.572912 30.6918 1.25036L26.2923 11.809H29.4414L30.0507 10.0492H33.8871L34.2576 11.809H37.0362L34.6122 0.185239H32.081ZM32.4906 3.32562L33.424 7.68741H30.9233L32.4906 3.32562Z" fill="#808D93"/>
</svg>
