<svg width="34" height="32" viewBox="0 0 34 32" fill="none" xmlns="http://www.w3.org/2000/svg">
<path d="M13.5664 10.5579C13.5664 10.8287 13.7859 11.0482 14.0567 11.0482C14.3275 11.0482 14.547 10.8287 14.547 10.5579C14.547 9.85933 14.745 9.54168 14.9958 9.1395C15.2757 8.69044 15.593 8.18157 15.593 7.20233C15.593 6.22303 15.2757 5.71402 14.9958 5.26497C14.7451 4.86272 14.547 4.545 14.547 3.84629C14.547 3.14757 14.745 2.82991 14.9958 2.42767C15.2757 1.97861 15.593 1.46961 15.593 0.490306C15.593 0.219526 15.3735 0 15.1027 0C14.8319 0 14.6124 0.219526 14.6124 0.490306C14.6124 1.18902 14.4144 1.50674 14.1636 1.90899C13.8837 2.35804 13.5664 2.86705 13.5664 3.84635C13.5664 4.82565 13.8837 5.33466 14.1636 5.78371C14.4143 6.18596 14.6124 6.50368 14.6124 7.2024C14.6124 7.90098 14.4144 8.21857 14.1637 8.62075C13.8837 9.06981 13.5664 9.57874 13.5664 10.5579Z" fill="#17143B"/>
<path d="M9.29004 10.5579C9.29004 10.8287 9.50957 11.0482 9.78034 11.0482C10.0511 11.0482 10.2707 10.8287 10.2707 10.5579C10.2707 9.85933 10.4687 9.54168 10.7194 9.1395C10.9994 8.69044 11.3166 8.18157 11.3166 7.20233C11.3166 6.22303 10.9993 5.71402 10.7194 5.26497C10.4687 4.86272 10.2707 4.545 10.2707 3.84629C10.2707 3.14757 10.4687 2.82991 10.7194 2.42767C10.9994 1.97861 11.3166 1.46961 11.3166 0.490306C11.3166 0.219526 11.0971 0 10.8263 0C10.5556 0 10.336 0.219526 10.336 0.490306C10.336 1.18902 10.138 1.50674 9.88723 1.90899C9.6073 2.35804 9.29004 2.86705 9.29004 3.84635C9.29004 4.82565 9.60736 5.33466 9.88723 5.78371C10.1379 6.18596 10.336 6.50368 10.336 7.2024C10.336 7.90098 10.138 8.21857 9.8873 8.62075C9.60737 9.06981 9.29004 9.57874 9.29004 10.5579Z" fill="#17143B"/>
<path d="M17.8145 10.5579C17.8145 10.8287 18.034 11.0482 18.3048 11.0482C18.5755 11.0482 18.7951 10.8287 18.7951 10.5579C18.7951 9.85933 18.9931 9.54168 19.2439 9.1395C19.5238 8.69044 19.8411 8.18157 19.8411 7.20233C19.8411 6.22303 19.5237 5.71402 19.2439 5.26497C18.9931 4.86272 18.7951 4.545 18.7951 3.84629C18.7951 3.14757 18.9931 2.82991 19.2439 2.42767C19.5238 1.97861 19.8411 1.46961 19.8411 0.490306C19.8411 0.219526 19.6215 0 19.3507 0C19.08 0 18.8604 0.219526 18.8604 0.490306C18.8604 1.18902 18.6624 1.50674 18.4116 1.90899C18.1317 2.35804 17.8145 2.86705 17.8145 3.84635C17.8145 4.82565 18.1318 5.33466 18.4116 5.78371C18.6624 6.18596 18.8604 6.50368 18.8604 7.2024C18.8604 7.90098 18.6624 8.21857 18.4117 8.62075C18.1318 9.06981 17.8145 9.57874 17.8145 10.5579Z" fill="#17143B"/>
<path d="M29.1594 14.9663V13.3437C29.1594 13.0729 28.9399 12.8534 28.6691 12.8534H0.490305C0.219526 12.8534 0 13.0729 0 13.3437V15.7977C0 19.1371 1.31716 22.3455 3.70886 24.8319C3.89668 25.0271 4.20708 25.0331 4.40209 24.8453C4.59723 24.6576 4.60331 24.3472 4.41555 24.1521C2.20055 21.8493 0.98061 18.8823 0.98061 15.7977V13.834H28.1788C28.1788 15.9518 28.1992 16.3357 28.0909 17.2233C26.8866 27.0472 14.3765 31.7779 6.06978 25.6068C5.85241 25.4453 5.54528 25.4906 5.38381 25.708C5.22233 25.9254 5.26764 26.2325 5.48501 26.394C6.60349 27.2249 7.82134 27.8872 9.1113 28.3731H0.776381C0.348313 28.3732 0 28.7215 0 29.1496C0 30.7213 1.27872 32.0001 2.85044 32.0001H22.3973C22.668 32.0001 22.8876 31.7805 22.8876 31.5098C22.8876 31.239 22.668 31.0194 22.3973 31.0194H2.85044C1.88839 31.0194 1.09371 30.2892 0.991658 29.3538H28.1677C28.0656 30.2892 27.271 31.0194 26.3089 31.0194H24.6853C24.4146 31.0194 24.195 31.239 24.195 31.5098C24.195 31.7805 24.4146 32.0001 24.6853 32.0001H26.3089C27.8806 32.0001 29.1594 30.7213 29.1594 29.1496C29.1594 28.7215 28.8111 28.3732 28.383 28.3732H20.0426C21.4043 27.8621 22.6813 27.1578 23.8337 26.2747L28.0173 25.6835C30.019 25.4006 31.7842 24.2007 32.7392 22.4736C34.5525 19.1945 32.8638 15.6025 29.1594 14.9663ZM28.987 17.8908C30.3831 18.2777 30.9433 19.469 30.324 20.8334C29.815 21.9551 28.7046 22.7579 27.4263 22.9284L26.9421 22.993C27.9909 21.4419 28.6854 19.7122 28.987 17.8908ZM31.881 21.9991C31.0741 23.4582 29.5785 24.4725 27.8801 24.7126L25.1925 25.0924C25.5184 24.7711 25.8258 24.4377 26.1138 24.0929L27.556 23.9005C29.1666 23.6855 30.5695 22.6656 31.2171 21.2387C32.1135 19.2636 31.167 17.4028 29.1105 16.9099C29.1369 16.6054 29.1544 16.2562 29.1583 15.9634C32.078 16.5606 33.3415 19.358 31.881 21.9991Z" fill="#17143B"/>
</svg>
