<svg width="34" height="20" viewBox="0 0 34 20" fill="none" xmlns="http://www.w3.org/2000/svg">
<path d="M29.1594 2.34192V0.720049C29.1594 0.449401 28.9399 0.22998 28.6691 0.22998H0.490305C0.219526 0.22998 0 0.449401 0 0.720049V3.17288C0 6.51064 1.31716 9.71752 3.70886 12.2027C3.89668 12.3978 4.20708 12.4038 4.40209 12.2162C4.59723 12.0285 4.60331 11.7182 4.41556 11.5233C2.20055 9.22157 0.98061 6.256 0.98061 3.17288V1.21012H28.1788C28.1788 3.32689 28.1992 3.71058 28.0909 4.59774C26.8866 14.417 14.3765 19.1453 6.06978 12.9773C5.85241 12.8159 5.54528 12.8611 5.38381 13.0784C5.22234 13.2957 5.26764 13.6027 5.48501 13.764C6.60349 14.5946 7.82134 15.2565 9.1113 15.7422H0.776382C0.348313 15.7423 0 16.0904 0 16.5184C0 18.0893 1.27872 19.3674 2.85044 19.3674H22.3973C22.668 19.3674 22.8876 19.148 22.8876 18.8774C22.8876 18.6067 22.668 18.3873 22.3973 18.3873H2.85044C1.88839 18.3873 1.09371 17.6574 0.991658 16.7224H28.1677C28.0656 17.6574 27.271 18.3873 26.3089 18.3873H24.6854C24.4146 18.3873 24.195 18.6067 24.195 18.8774C24.195 19.148 24.4146 19.3674 24.6854 19.3674H26.3089C27.8806 19.3674 29.1594 18.0893 29.1594 16.5184C29.1594 16.0904 28.8111 15.7424 28.383 15.7424H20.0426C21.4043 15.2314 22.6813 14.5275 23.8337 13.6449L28.0173 13.0539C30.019 12.7712 31.7842 11.5718 32.7392 9.84552C34.5525 6.56801 32.8638 2.97776 29.1594 2.34192ZM28.987 5.26495C30.3831 5.65171 30.9433 6.84238 30.3241 8.20614C29.815 9.32729 28.7046 10.1297 27.4263 10.3002L26.9421 10.3647C27.9909 8.81435 28.6854 7.08546 28.987 5.26495ZM31.881 9.37127C31.0742 10.8296 29.5785 11.8435 27.8801 12.0834L25.1925 12.4631C25.5184 12.142 25.8258 11.8087 26.1138 11.4641L27.5561 11.2718C29.1666 11.0569 30.5695 10.0375 31.2171 8.61127C32.1135 6.63714 31.167 4.77723 29.1105 4.28455C29.1369 3.98018 29.1544 3.63119 29.1583 3.33845C32.078 3.93536 33.3415 6.7315 31.881 9.37127Z" fill="#17143B"/>
</svg>
