<svg width="11" height="33" viewBox="0 0 11 33" fill="none" xmlns="http://www.w3.org/2000/svg">
<path d="M9.76304 5.77308C9.75571 6.51858 9.55918 7.25358 9.19443 7.89805C8.89731 8.42295 9.71274 8.88514 10.0104 8.35951C10.453 7.57716 10.6918 6.68574 10.7003 5.78211C10.7142 4.35383 10.1708 3.00559 9.17001 1.98581C8.16927 0.966033 6.83113 0.396966 5.40216 0.383057C5.38434 0.382812 5.36725 0.382812 5.34943 0.382812C2.42362 0.382812 0.0285812 2.74766 0.000260667 5.67865C-0.0136555 7.10693 0.53005 8.45492 1.53055 9.4747C2.43583 10.3971 3.61723 10.9491 4.8919 11.0567V22.4263C4.10113 22.634 3.51591 23.3544 3.51591 24.2089V31.8977C3.51591 32.1566 3.72588 32.3662 3.98467 32.3662H6.7364C6.99519 32.3662 7.20515 32.1566 7.20515 31.8977V24.2089C7.20515 23.3549 6.62068 22.6347 5.82941 22.4268V11.0557C6.6656 10.9813 7.47151 10.7126 8.18588 10.2656C8.69711 9.94567 8.20052 9.15088 7.68856 9.47153C6.9759 9.91736 6.15046 10.1472 5.30768 10.1406C4.12896 10.1292 3.02519 9.65967 2.19999 8.81852C1.37454 7.97761 0.926294 6.86558 0.937768 5.68767C0.961206 3.27012 2.93608 1.31987 5.34967 1.31987H5.39313C6.5716 1.33134 7.67537 1.80084 8.50082 2.642C9.32602 3.48315 9.77451 4.59493 9.76304 5.77308ZM6.26765 24.2089V31.4292H4.45342V24.2089C4.45342 23.7094 4.85992 23.3031 5.36139 23.3031C5.86115 23.3031 6.26765 23.7094 6.26765 24.2089Z" fill="#17143B"/>
</svg>
