<svg width="37" height="21" viewBox="0 0 37 21" fill="none" xmlns="http://www.w3.org/2000/svg">
<path d="M11.2564 14.636V16H0.762361V0.379999H11.0584V1.744H2.30236V7.376H9.93636V8.674H2.30236V14.636H11.2564ZM23.3892 16H21.8932V9.598C21.8932 8.24867 21.6879 7.266 21.2772 6.65C20.8812 6.01933 20.2652 5.704 19.4292 5.704C18.8425 5.704 18.2632 5.85067 17.6912 6.144C17.1192 6.42267 16.6132 6.81133 16.1732 7.31C15.7479 7.794 15.4399 8.35133 15.2492 8.982V16H13.7532V4.538H15.1172V7.134C15.5719 6.298 16.2392 5.62333 17.1192 5.11C17.9992 4.59667 18.9525 4.34 19.9792 4.34C20.8299 4.34 21.5045 4.54533 22.0032 4.956C22.5019 5.352 22.8539 5.924 23.0592 6.672C23.2792 7.40533 23.3892 8.278 23.3892 9.29V16ZM31.1774 16.154C30.3854 16.154 29.6594 15.9927 28.9994 15.67C28.354 15.3473 27.7894 14.9147 27.3054 14.372C26.836 13.8147 26.4694 13.184 26.2054 12.48C25.9414 11.776 25.8094 11.05 25.8094 10.302C25.8094 9.23133 26.0367 8.24867 26.4914 7.354C26.946 6.44467 27.5694 5.71867 28.3614 5.176C29.168 4.61867 30.092 4.34 31.1334 4.34C32.116 4.34 32.9667 4.58933 33.6854 5.088C34.4187 5.58667 35.0347 6.20267 35.5334 6.936V4.538H36.8754V16.044C36.8754 17.1147 36.6187 18.0093 36.1054 18.728C35.592 19.4467 34.91 19.9893 34.0594 20.356C33.2087 20.7227 32.2774 20.906 31.2654 20.906C29.9454 20.906 28.882 20.6713 28.0754 20.202C27.2834 19.7327 26.6307 19.102 26.1174 18.31L27.0414 17.584C27.496 18.3027 28.0974 18.838 28.8454 19.19C29.608 19.542 30.4147 19.718 31.2654 19.718C32.0134 19.718 32.6954 19.5787 33.3114 19.3C33.942 19.036 34.4407 18.6327 34.8074 18.09C35.1887 17.5473 35.3794 16.8653 35.3794 16.044V13.778C34.9394 14.4967 34.338 15.076 33.5754 15.516C32.8127 15.9413 32.0134 16.154 31.1774 16.154ZM31.5954 14.9C32.1967 14.9 32.7687 14.7607 33.3114 14.482C33.854 14.2033 34.3087 13.8513 34.6754 13.426C35.0567 12.986 35.2914 12.5313 35.3794 12.062V8.52C35.1594 7.96267 34.844 7.47133 34.4334 7.046C34.0227 6.606 33.5534 6.26867 33.0254 6.034C32.4974 5.78467 31.962 5.66 31.4194 5.66C30.5687 5.66 29.8354 5.89467 29.2194 6.364C28.618 6.81867 28.1487 7.40533 27.8114 8.124C27.4887 8.828 27.3274 9.56133 27.3274 10.324C27.3274 11.1453 27.518 11.908 27.8994 12.612C28.2807 13.3013 28.794 13.8587 29.4394 14.284C30.0847 14.6947 30.8034 14.9 31.5954 14.9Z" fill="#17143B"/>
</svg>
