<svg width="39" height="32" viewBox="0 0 39 32" fill="none" xmlns="http://www.w3.org/2000/svg">
<path d="M38.1331 31.2255L37.1041 28.7558C37.1033 28.7539 37.1025 28.752 37.1017 28.7501L28.8688 8.99092C28.782 8.78252 28.5783 8.64681 28.3526 8.64681H25.6319C25.323 8.64681 25.0727 8.89719 25.0727 9.20603C25.0727 9.51487 25.323 9.76525 25.6319 9.76525H27.9797L35.7487 28.4111H18.4315L10.6626 9.76525H23.3973C23.7063 9.76525 23.9566 9.51487 23.9566 9.20603C23.9566 8.89719 23.7063 8.64681 23.3973 8.64681H10.3829V6.05934H16.6177C16.9265 6.05934 17.1769 5.80896 17.1769 5.50012V1.17682C17.1769 0.867984 16.9265 0.617603 16.6177 0.617603H10.3829V0.55922C10.3829 0.250382 10.1326 0 9.82373 0C9.51489 0 9.26451 0.250382 9.26451 0.55922V1.17682V5.50012V9.09419L2.80842 24.589L0.156152 27.3474C-0.0550095 27.5669 -0.0515796 27.915 0.163832 28.1304L0.989017 28.9556L0.0431896 31.2255C-0.0286888 31.3981 -0.00960079 31.5952 0.0941159 31.7508C0.197833 31.9063 0.372458 31.9998 0.559387 31.9998H4.26463C4.26664 31.9998 4.26866 31.9998 4.27067 31.9998H15.3807C15.3813 31.9998 15.382 32 15.3826 32C15.3836 32 15.3846 31.9998 15.3856 31.9998H19.0863C19.087 31.9998 19.0876 32 19.0883 32C19.0893 32 19.0903 31.9998 19.0913 31.9998H37.6169C37.8039 31.9998 37.9785 31.9064 38.0822 31.7508C38.186 31.5952 38.2051 31.3981 38.1331 31.2255ZM10.3829 1.73604H16.0584V4.9409H10.3829V1.73604ZM1.39829 30.8814L1.84433 29.8108L2.91505 30.8814H1.39829ZM4.07017 30.4547L2.04982 28.4345C2.04863 28.4332 2.04736 28.432 2.04617 28.4308L1.34252 27.7273L8.1615 20.6355L4.07017 30.4547ZM5.10406 30.8814L9.82388 19.5538L14.5436 30.8814H5.10406ZM15.7553 30.8814L10.34 17.8848C10.3399 17.8845 10.3397 17.8842 10.3396 17.8839C10.3299 17.8607 10.3182 17.8381 10.3052 17.8161C10.3026 17.8117 10.2999 17.8074 10.2972 17.8031C10.2856 17.7845 10.2728 17.7664 10.2587 17.7491C10.2567 17.7465 10.2549 17.7438 10.2528 17.7414C10.2399 17.7259 10.2262 17.711 10.2114 17.6967C10.2087 17.6941 10.2057 17.6919 10.203 17.6894C10.1984 17.6852 10.1936 17.6811 10.1887 17.677C10.1735 17.6639 10.1578 17.6518 10.1417 17.6405C10.1378 17.6378 10.1341 17.6348 10.13 17.6322C10.1094 17.6186 10.0882 17.6066 10.0664 17.5961C10.0631 17.5946 10.0598 17.5933 10.0566 17.5918C10.0367 17.5827 10.0163 17.5748 9.99567 17.5682C9.99135 17.5667 9.98702 17.5652 9.9827 17.5639C9.95936 17.557 9.93565 17.5516 9.91171 17.5478C9.90724 17.5471 9.90262 17.5468 9.89807 17.5461C9.87644 17.5432 9.85475 17.5416 9.83297 17.5412C9.82992 17.5412 9.82693 17.5406 9.82388 17.5406C9.82246 17.5406 9.82112 17.5409 9.8197 17.5409C9.79539 17.541 9.77116 17.543 9.74708 17.5463C9.74164 17.5471 9.73627 17.548 9.7309 17.549C9.7089 17.5527 9.68706 17.5575 9.66558 17.5638C9.66327 17.5645 9.66081 17.565 9.6585 17.5657C9.63509 17.5729 9.61219 17.582 9.58975 17.5924C9.5855 17.5944 9.58132 17.5965 9.57707 17.5986C9.55709 17.6084 9.53763 17.6193 9.51869 17.6316C9.51645 17.633 9.51414 17.6343 9.51191 17.6358C9.492 17.6492 9.47291 17.6641 9.45457 17.6803C9.45002 17.6843 9.44577 17.6886 9.44137 17.6928C9.43444 17.6992 9.42728 17.7053 9.42064 17.7122L4.94651 22.3653L9.26451 12.0021V14.1471C9.26451 14.4559 9.51489 14.7063 9.82373 14.7063C10.1326 14.7063 10.3829 14.4559 10.3829 14.1471V12.0021C12.1812 16.3178 15.7747 24.9426 17.5424 29.1849C17.5431 29.1867 17.5439 29.1885 17.5447 29.1903C17.8338 29.8842 18.0741 30.4608 18.2493 30.8814H15.7553ZM19.4609 30.8814L18.8976 29.5295H36.2147L36.7781 30.8814H19.4609Z" fill="#17143B"/>
</svg>
