<svg width="40" height="33" viewBox="0 0 40 33" fill="none" xmlns="http://www.w3.org/2000/svg">
<path d="M9.76303 5.39286C9.75571 6.13872 9.55917 6.87408 9.19442 7.51886C8.8973 8.04401 9.71274 8.50641 10.0103 7.98053C10.453 7.19781 10.6917 6.30596 10.7003 5.4019C10.7142 3.97293 10.1707 2.62404 9.17001 1.60377C8.16927 0.583501 6.83112 0.0141602 5.40216 0.000244142C5.38434 0 5.36725 0 5.34942 0C2.42362 0 0.0285812 2.36598 0.000260667 5.29838C-0.0136555 6.72735 0.53005 8.07599 1.53055 9.09626C2.43583 10.0191 3.61723 10.5714 4.8919 10.679V22.0541C4.10112 22.2619 3.51591 22.9826 3.51591 23.8376V31.53C3.51591 31.7891 3.72587 31.9988 3.98467 31.9988H6.7364C6.99519 31.9988 7.20515 31.7891 7.20515 31.53V23.8376C7.20515 22.9831 6.62067 22.2626 5.82941 22.0546V10.6781C6.6656 10.6036 7.47151 10.3348 8.18587 9.88753C8.6971 9.56746 8.20052 8.77228 7.68855 9.09309C6.9759 9.53913 6.15045 9.76912 5.30767 9.76253C4.12895 9.75105 3.02519 9.28132 2.19998 8.43976C1.37454 7.59845 0.926293 6.48589 0.937768 5.30741C0.961205 2.88869 2.93607 0.937507 5.34967 0.937507H5.39312C6.5716 0.948982 7.67537 1.41871 8.50081 2.26027C9.32602 3.10183 9.7745 4.21414 9.76303 5.39286ZM6.26764 23.8376V31.0613H4.45342V23.8376C4.45342 23.3378 4.85992 22.9313 5.36139 22.9313C5.86115 22.9313 6.26764 23.3378 6.26764 23.8376Z" fill="#17143B"/>
<path d="M4.19632 2.93445C4.19461 2.93445 4.19315 2.93445 4.19168 2.93445C3.93484 2.93445 3.72537 3.14124 3.72293 3.39856L3.68362 7.47355C3.67776 8.0756 4.61502 8.09367 4.62088 7.48258L4.63089 6.46402L5.49662 6.47232C6.47026 6.48355 7.2669 5.69887 7.27642 4.72694C7.28082 4.25624 7.10186 3.8119 6.77227 3.47571C6.44243 3.13953 6.00175 2.95203 5.5308 2.94739L4.19632 2.93445ZM6.33891 4.71766C6.33452 5.17275 5.95952 5.54165 5.5059 5.53481L4.63993 5.52651L4.6558 3.87635L5.52177 3.88465C5.74223 3.88685 5.94853 3.97474 6.10283 4.13197C6.25713 4.28944 6.34111 4.49745 6.33891 4.71766Z" fill="#17143B"/>
<path d="M16.6616 18.3446C15.1896 18.3446 13.9922 19.5526 13.9922 21.0373C13.9922 22.5223 15.1896 23.7303 16.6616 23.7303C18.1333 23.7303 19.3308 22.5223 19.3308 21.0373C19.3308 19.5526 18.1333 18.3446 16.6616 18.3446ZM16.6616 22.5403C15.8457 22.5403 15.1822 21.866 15.1822 21.0373C15.1822 20.2086 15.8457 19.5346 16.6616 19.5346C17.4773 19.5346 18.1408 20.2086 18.1408 21.0373C18.1408 21.866 17.4773 22.5403 16.6616 22.5403Z" fill="#17143B"/>
<path d="M31.9678 18.3446C30.4958 18.3446 29.2983 19.5526 29.2983 21.0373C29.2983 22.5223 30.4958 23.7303 31.9678 23.7303C33.4395 23.7303 34.6369 22.5223 34.6369 21.0373C34.6369 19.5526 33.4395 18.3446 31.9678 18.3446ZM31.9678 22.5403C31.1521 22.5403 30.4883 21.866 30.4883 21.0373C30.4883 20.2086 31.1521 19.5346 31.9678 19.5346C32.7834 19.5346 33.4469 20.2086 33.4469 21.0373C33.4469 21.866 32.7834 22.5403 31.9678 22.5403Z" fill="#17143B"/>
<path d="M37.8921 24.6503V19.943C37.8921 18.9628 37.5156 18.0691 36.9001 17.3981C36.9884 17.3876 37.0767 17.3746 37.1657 17.3566C38.5667 17.0786 39.5026 16.0287 39.2962 14.9667C39.2138 14.5421 38.9615 14.1774 38.5667 13.9121C38.0024 13.5331 37.2215 13.4063 36.4244 13.5644C35.892 13.6704 35.4269 13.8876 35.0658 14.1749L34.1045 10.1097C33.8238 8.92212 32.7822 8.09253 31.5717 8.09253H17.2728C16.0626 8.09253 15.021 8.92212 14.74 10.1097L13.7787 14.1746C13.4176 13.8876 12.9528 13.6701 12.4201 13.5644C11.623 13.406 10.8421 13.5331 10.2778 13.9121C9.88294 14.1774 9.63037 14.5421 9.54794 14.9667C9.34186 16.0287 10.2778 17.0786 11.6788 17.3566C11.7677 17.3743 11.8561 17.3873 11.9444 17.3981C11.3286 18.0691 10.9524 18.9628 10.9524 19.943V24.6503C10.1705 24.8908 9.60062 25.6197 9.60062 26.4794C9.60062 27.3344 10.1646 28.0601 10.94 28.3047V30.4693C10.94 31.3643 11.6683 32.0925 12.5629 32.0925H14.6557C15.5503 32.0925 16.2786 31.3643 16.2786 30.4693V28.393H18.3797C19.1455 28.393 19.1467 27.203 18.3797 27.203H11.5142C11.1154 27.203 10.7906 26.8782 10.7906 26.4794C10.7906 26.0805 11.1154 25.7557 11.5142 25.7557H37.3302C37.7291 25.7557 38.0539 26.0805 38.0539 26.4794C38.0539 26.8782 37.7291 27.203 37.3302 27.203H21.6324C20.8666 27.203 20.8654 28.393 21.6324 28.393H32.6843V30.4693C32.6843 31.3643 33.4125 32.0925 34.3072 32.0925H36.3999C37.2949 32.0925 38.0229 31.3643 38.0229 30.4693V28.2625C38.7362 27.9842 39.2435 27.2904 39.2435 26.4794C39.2435 25.6197 38.674 24.8908 37.8921 24.6503ZM15.0886 30.4696C15.0886 30.7082 14.8943 30.9025 14.6557 30.9025H12.5629C12.3243 30.9025 12.13 30.7082 12.13 30.4696V28.3995H15.0886V30.4696ZM36.6562 14.7318C36.8003 14.703 36.945 14.689 37.0845 14.689C37.4043 14.689 37.6978 14.7621 37.9029 14.9C38.0312 14.9862 38.1072 15.0847 38.1282 15.1932C38.1952 15.5384 37.6987 16.0377 36.9339 16.1895C36.4594 16.2837 35.9816 16.2193 35.6869 16.0213C35.5586 15.9351 35.4829 15.8362 35.4619 15.7278C35.3949 15.3829 35.8914 14.8833 36.6562 14.7318ZM10.7163 15.1932C10.7373 15.0847 10.8129 14.9862 10.9412 14.9C11.1464 14.7621 11.4402 14.689 11.7597 14.689C11.8994 14.689 12.0442 14.703 12.1883 14.7318C12.9531 14.8833 13.4495 15.3829 13.3826 15.7278C13.3615 15.8362 13.2859 15.9351 13.1576 16.0213C12.8629 16.2193 12.3851 16.2837 11.9106 16.1895C11.1458 16.0377 10.6493 15.5384 10.7163 15.1932ZM12.1424 24.5661V19.943C12.1424 18.5556 13.2438 17.4214 14.6182 17.3674H28.5341C29.3082 17.3674 29.3101 16.1747 28.5341 16.1747C24.4314 16.1747 15.0936 16.1675 14.5277 16.1774L15.898 10.3836C16.0514 9.7353 16.6167 9.28254 17.2728 9.28254H31.5717C32.2278 9.28254 32.793 9.7353 32.9464 10.3836L34.3165 16.1774C33.4736 16.1846 32.6297 16.1747 31.7865 16.1747C31.0124 16.1747 31.0105 17.3674 31.7865 17.3674H34.2263C35.6007 17.4214 36.7021 18.5556 36.7021 19.943V24.5661H12.1424ZM36.8329 30.4696C36.8329 30.7082 36.6389 30.9025 36.3999 30.9025H34.3075C34.0686 30.9025 33.8746 30.7082 33.8746 30.4696V28.3995H36.8332V30.4696H36.8329Z" fill="#17143B"/>
</svg>
