<svg width="21" height="16" viewBox="0 0 21 16" fill="none" xmlns="http://www.w3.org/2000/svg">
<path d="M20.7384 5.17847C20.6165 5.30021 20.4513 5.36859 20.279 5.36859C20.1068 5.36859 19.9415 5.30021 19.8196 5.17847C17.336 2.69582 13.9681 1.30117 10.4564 1.30117C6.94477 1.30117 3.57685 2.69582 1.09324 5.17847C0.970008 5.2933 0.807017 5.35581 0.638604 5.35284C0.470191 5.34987 0.309506 5.28164 0.190402 5.16254C0.0712973 5.04344 0.00307273 4.88275 0.000101279 4.71434C-0.00287017 4.54592 0.0596435 4.38293 0.174472 4.2597C2.90203 1.53225 6.60133 0 10.4586 0C14.3159 0 18.0152 1.53225 20.7427 4.2597C20.8639 4.38216 20.9315 4.54771 20.9307 4.71998C20.9299 4.89225 20.8607 5.05716 20.7384 5.17847Z" fill="#86858A"/>
<path d="M18.0385 6.9552C18.1533 7.07843 18.2159 7.24142 18.2129 7.40984C18.2099 7.57825 18.1417 7.73893 18.0226 7.85804C17.9035 7.97714 17.7428 8.04537 17.5744 8.04834C17.406 8.05131 17.243 7.98879 17.1198 7.87397C16.245 6.99759 15.2061 6.30231 14.0623 5.82793C12.9186 5.35354 11.6926 5.10936 10.4543 5.10936C9.21614 5.10936 7.99008 5.35354 6.84635 5.82793C5.70261 6.30231 4.66366 6.99759 3.78894 7.87397C3.66484 7.98077 3.505 8.0368 3.34137 8.03087C3.17775 8.02494 3.02238 7.95748 2.90633 7.84198C2.79028 7.72648 2.72209 7.57144 2.71539 7.40784C2.70869 7.24424 2.76396 7.08414 2.87018 6.95953C3.8656 5.9626 5.04781 5.1717 6.34918 4.63207C7.65055 4.09245 9.04554 3.8147 10.4543 3.8147C11.8632 3.8147 13.2581 4.09245 14.5595 4.63207C15.8609 5.1717 17.0431 5.9626 18.0385 6.95953V6.9552Z" fill="#86858A"/>
<path d="M15.3475 9.651C15.4623 9.77423 15.5248 9.93722 15.5219 10.1056C15.5189 10.274 15.4507 10.4347 15.3316 10.5538C15.2125 10.6729 15.0518 10.7412 14.8834 10.7441C14.7149 10.7471 14.552 10.6846 14.4287 10.5698C13.3731 9.52043 11.9452 8.93145 10.4568 8.93145C8.96837 8.93145 7.54043 9.52043 6.48484 10.5698C6.36161 10.6846 6.19862 10.7471 6.03021 10.7441C5.86179 10.7412 5.70111 10.6729 5.582 10.5538C5.4629 10.4347 5.39467 10.274 5.3917 10.1056C5.38873 9.93722 5.45124 9.77423 5.56607 9.651C6.20814 9.0076 6.97079 8.49716 7.81038 8.14888C8.64996 7.80061 9.54999 7.62134 10.4589 7.62134C11.3679 7.62134 12.2679 7.80061 13.1075 8.14888C13.9471 8.49716 14.7098 9.0076 15.3518 9.651H15.3475Z" fill="#86858A"/>
<path d="M10.4538 11.4321C10.0021 11.4321 9.56055 11.566 9.18497 11.817C8.80938 12.0679 8.51664 12.4246 8.34378 12.842C8.17091 13.2593 8.12568 13.7185 8.21381 14.1616C8.30193 14.6046 8.51946 15.0116 8.83887 15.331C9.15828 15.6504 9.56523 15.8679 10.0083 15.956C10.4513 16.0441 10.9105 15.9989 11.3279 15.8261C11.7452 15.6532 12.1019 15.3605 12.3529 14.9849C12.6038 14.6093 12.7378 14.1677 12.7378 13.716C12.7378 13.1103 12.4971 12.5293 12.0688 12.101C11.6405 11.6727 11.0596 11.4321 10.4538 11.4321ZM10.4538 14.6998C10.2593 14.6998 10.0691 14.6421 9.90729 14.534C9.7455 14.4259 9.61941 14.2722 9.54495 14.0925C9.47049 13.9127 9.45101 13.7149 9.48897 13.5241C9.52693 13.3332 9.62062 13.1579 9.75821 13.0204C9.89579 12.8828 10.0711 12.7891 10.2619 12.7511C10.4528 12.7132 10.6506 12.7326 10.8303 12.8071C11.0101 12.8816 11.1637 13.0077 11.2718 13.1694C11.3799 13.3312 11.4376 13.5214 11.4376 13.716C11.4376 13.9769 11.334 14.2271 11.1495 14.4116C10.965 14.5961 10.7148 14.6998 10.4538 14.6998Z" fill="#86858A"/>
</svg>
