<svg width="18" height="19" viewBox="0 0 18 19" fill="none" xmlns="http://www.w3.org/2000/svg">
<path d="M0.74999 3.56341H2.80199C3.20699 5.05354 4.74329 5.93323 6.23343 5.52822C7.19049 5.2681 7.93812 4.52047 8.19824 3.56341H17.25C17.6642 3.56341 18 3.22763 18 2.81342C18 2.39921 17.6642 2.06343 17.25 2.06343H8.19824C7.79324 0.573258 6.25695 -0.306423 4.76681 0.0985778C3.80975 0.358699 3.06212 1.10633 2.80199 2.06339H0.74999C0.335778 2.06339 0 2.39917 0 2.81338C0 3.2276 0.335778 3.56341 0.74999 3.56341Z" fill="#86858A"/>
<path d="M17.25 8.25066H15.198C14.7938 6.76073 13.2584 5.88056 11.7684 6.28471C10.8106 6.54456 10.0623 7.29279 9.8025 8.25066H0.74999C0.335778 8.25066 0 8.58643 0 9.00065C0 9.41486 0.335778 9.75064 0.74999 9.75064H9.8025C10.2067 11.2406 11.7421 12.1207 13.2321 11.7166C14.1899 11.4567 14.9382 10.7085 15.198 9.75064H17.25C17.6642 9.75064 18 9.41486 18 9.00065C18 8.58643 17.6642 8.25066 17.25 8.25066Z" fill="#86858A"/>
<path d="M17.25 14.4384H8.19824C7.79324 12.9483 6.25695 12.0686 4.76681 12.4736C3.80975 12.7337 3.06212 13.4813 2.80199 14.4384H0.74999C0.335778 14.4384 0 14.7742 0 15.1884C0 15.6026 0.335778 15.9384 0.74999 15.9384H2.80199C3.20699 17.4285 4.74329 18.3082 6.23343 17.9032C7.19049 17.6431 7.93812 16.8954 8.19824 15.9384H17.25C17.6642 15.9384 18 15.6026 18 15.1884C18 14.7742 17.6642 14.4384 17.25 14.4384Z" fill="#86858A"/>
</svg>
