<svg width="16" height="16" viewBox="0 0 16 16" fill="none" xmlns="http://www.w3.org/2000/svg">
<path d="M12.0974 6.45062L7.58344 1.93667C7.37527 1.72114 7.26009 1.43247 7.26269 1.13284C7.2653 0.833211 7.38548 0.54659 7.59736 0.334711C7.80924 0.122831 8.09586 0.00264691 8.39549 4.31996e-05C8.69512 -0.00256052 8.98379 0.112625 9.19932 0.32079L15.664 6.78545C15.7705 6.89134 15.855 7.01722 15.9126 7.15588C15.9703 7.29454 16 7.44322 16 7.59339C16 7.74356 15.9703 7.89225 15.9126 8.03091C15.855 8.16956 15.7705 8.29545 15.664 8.40133L9.19932 14.866C9.0939 14.9751 8.9678 15.0622 8.82838 15.1221C8.68896 15.182 8.539 15.2135 8.38727 15.2148C8.23553 15.2161 8.08505 15.1872 7.94461 15.1298C7.80417 15.0723 7.67657 14.9875 7.56927 14.8802C7.46198 14.7729 7.37712 14.6453 7.31966 14.5048C7.2622 14.3644 7.23329 14.2139 7.23461 14.0622C7.23593 13.9104 7.26745 13.7605 7.32734 13.6211C7.38723 13.4816 7.47429 13.3555 7.58344 13.2501L12.0974 8.73617H1.14277C0.83969 8.73617 0.549022 8.61577 0.334711 8.40146C0.120399 8.18715 0 7.89648 0 7.59339C0 7.29031 0.120399 6.99964 0.334711 6.78533C0.549022 6.57102 0.83969 6.45062 1.14277 6.45062H12.0974Z" fill="#4E5AFE"/>
</svg>
