<svg width="19" height="16" viewBox="0 0 19 16" fill="none" xmlns="http://www.w3.org/2000/svg">
<path d="M17.7104 10.327C17.3458 10.7473 16.8951 11.0843 16.3888 11.3152C15.8826 11.5461 15.3326 11.6655 14.7762 11.6654H11.674L11.9353 13.2527C12.0277 13.8117 11.9162 14.3852 11.621 14.8688C11.3258 15.3524 10.8666 15.7137 10.3272 15.8869C9.78774 16.0601 9.20402 16.0337 8.68248 15.8123C8.16094 15.591 7.73633 15.1896 7.48609 14.6813L5.99758 11.6654H3.88847C2.85757 11.6642 1.86923 11.2541 1.14027 10.5252C0.411309 9.79619 0.00123487 8.80786 0 7.77695L0 3.88847C0.00123487 2.85757 0.411309 1.86923 1.14027 1.14027C1.86923 0.411308 2.85757 0.00123501 3.88847 0H14.2318C15.1677 0.00383091 16.0712 0.343501 16.7778 0.957218C17.4845 1.57094 17.9473 2.41792 18.0822 3.34409L18.6305 7.23256C18.7077 7.78416 18.6655 8.3459 18.5068 8.87978C18.348 9.41365 18.0765 9.9072 17.7104 10.327ZM1.55539 3.88847V7.77695C1.55539 8.39572 1.8012 8.98915 2.23873 9.42669C2.67627 9.86423 3.2697 10.11 3.88847 10.11H5.44386V1.55539H3.88847C3.2697 1.55539 2.67627 1.8012 2.23873 2.23873C1.8012 2.67627 1.55539 3.2697 1.55539 3.88847ZM17.0867 7.4511L16.5377 3.56262C16.4574 3.00735 16.1805 2.49934 15.7573 2.13098C15.3342 1.76262 14.7928 1.55837 14.2318 1.55539H6.99925V10.3169C7.07255 10.3808 7.13322 10.4578 7.17812 10.544L8.8805 13.9931C8.94434 14.1082 9.03459 14.2066 9.14385 14.2801C9.2531 14.3535 9.37823 14.4001 9.50896 14.4158C9.63968 14.4315 9.77227 14.416 9.89583 14.3705C10.0194 14.325 10.1304 14.2508 10.2197 14.154C10.2961 14.0652 10.352 13.9606 10.3833 13.8477C10.4146 13.7347 10.4206 13.6163 10.4009 13.5008L9.99027 11.0122C9.97225 10.901 9.97859 10.7872 10.0089 10.6787C10.0392 10.5702 10.0926 10.4696 10.1656 10.3838C10.2386 10.298 10.3294 10.2291 10.4317 10.1818C10.5339 10.1345 10.6452 10.11 10.7579 10.11H14.7762C15.1101 10.1101 15.4402 10.0384 15.7441 9.89994C16.048 9.76145 16.3186 9.55934 16.5376 9.30727C16.7566 9.0552 16.919 8.75904 17.0138 8.43882C17.1085 8.1186 17.1334 7.78177 17.0867 7.4511Z" fill="#4E5AFE"/>
</svg>
