<?xml version="1.0" encoding="UTF-8" standalone="no" ?>
<!DOCTYPE svg PUBLIC "-//W3C//DTD SVG 1.1//EN" "http://www.w3.org/Graphics/SVG/1.1/DTD/svg11.dtd">
<svg xmlns="http://www.w3.org/2000/svg" xmlns:xlink="http://www.w3.org/1999/xlink" version="1.1" width="24" height="24" viewBox="0 0 24 24" xml:space="preserve">
<desc>Created with Fabric.js 4.6.0</desc>
<defs>
</defs>
<g transform="matrix(0.09 0 0 0.09 18.12 15.46)" id="75iKC7CbEAyak98-YPvdl"  >
<path style="stroke: none; stroke-width: 1; stroke-dasharray: none; stroke-linecap: butt; stroke-dashoffset: 0; stroke-linejoin: miter; stroke-miterlimit: 4; fill: rgb(66,133,244); fill-rule: nonzero; opacity: 1;" vector-effect="non-scaling-stroke"  transform=" translate(-193.21, -168.12)" d="M 255.878 133.451 C 255.878 122.717 255.007 114.884 253.122 106.761 L 130.55 106.761 L 130.55 155.209 L 202.497 155.209 C 201.047 167.249 193.214 185.381 175.807 197.565 L 175.563 199.187 L 214.318 229.21 L 217.003 229.478 C 241.662 206.704 255.878 173.196 255.878 133.451" stroke-linecap="round" />
</g>
<g transform="matrix(0.09 0 0 0.09 10.85 19.18)" id="RDdO74_jpBV7n79mwU5_e"  >
<path style="stroke: none; stroke-width: 1; stroke-dasharray: none; stroke-linecap: butt; stroke-dashoffset: 0; stroke-linejoin: miter; stroke-miterlimit: 4; fill: rgb(52,168,83); fill-rule: nonzero; opacity: 1;" vector-effect="non-scaling-stroke"  transform=" translate(-115.46, -208.74)" d="M 130.55 261.1 C 165.798 261.1 195.389 249.495 217.003 229.478 L 175.807 197.565 C 164.783 205.253 149.987 210.62 130.55 210.62 C 96.027 210.62 66.726 187.847 56.281 156.37 L 54.75 156.5 L 14.452 187.687 L 13.925 189.152 C 35.393 231.798 79.49 261.1 130.55 261.1" stroke-linecap="round" />
</g>
<g transform="matrix(0.09 0 0 0.09 2.7 11.99)" id="8S823AO4WS1KqqU8gctIr"  >
<path style="stroke: none; stroke-width: 1; stroke-dasharray: none; stroke-linecap: butt; stroke-dashoffset: 0; stroke-linejoin: miter; stroke-miterlimit: 4; fill: rgb(251,188,5); fill-rule: nonzero; opacity: 1;" vector-effect="non-scaling-stroke"  transform=" translate(-28.14, -130.23)" d="M 56.281 156.37 C 53.525 148.247 51.93 139.543 51.93 130.55 C 51.93 121.556 53.525 112.853 56.136 104.73 L 56.063 103 L 15.26 71.312 L 13.925 71.947 C 5.077 89.644 0 109.517 0 130.55 C 0 151.583 5.077 171.455 13.925 189.152 L 56.281 156.37" stroke-linecap="round" />
</g>
<g transform="matrix(0.09 0 0 0.09 10.9 4.86)" id="2JjhicOFn5JInQTTZzUO1"  >
<path style="stroke: none; stroke-width: 1; stroke-dasharray: none; stroke-linecap: butt; stroke-dashoffset: 0; stroke-linejoin: miter; stroke-miterlimit: 4; fill: rgb(235,67,53); fill-rule: nonzero; opacity: 1;" vector-effect="non-scaling-stroke"  transform=" translate(-115.9, -52.37)" d="M 130.55 50.479 C 155.064 50.479 171.6 61.068 181.029 69.917 L 217.873 33.943 C 195.245 12.91 165.798 0 130.55 0 C 79.49 0 35.393 29.301 13.925 71.947 L 56.136 104.73 C 66.726 73.253 96.027 50.479 130.55 50.479" stroke-linecap="round" />
</g>
</svg>