<svg width="19" height="16" viewBox="0 0 19 16" fill="none" xmlns="http://www.w3.org/2000/svg">
<path d="M17.7104 5.67299C17.3458 5.25273 16.8951 4.91573 16.3888 4.68481C15.8826 4.4539 15.3326 4.33446 14.7762 4.33458H11.674L11.9353 2.7473C12.0277 2.18834 11.9162 1.61477 11.621 1.1312C11.3258 0.647636 10.8666 0.286295 10.3272 0.113086C9.78774 -0.0601233 9.20402 -0.0336582 8.68248 0.187654C8.16094 0.408966 7.73633 0.810378 7.48609 1.31867L5.99758 4.33458H3.88847C2.85757 4.33581 1.86923 4.74588 1.14027 5.47485C0.411309 6.20381 0.00123487 7.19214 0 8.22305L0 12.1115C0.00123487 13.1424 0.411309 14.1308 1.14027 14.8597C1.86923 15.5887 2.85757 15.9988 3.88847 16H14.2318C15.1677 15.9962 16.0712 15.6565 16.7778 15.0428C17.4845 14.4291 17.9473 13.5821 18.0822 12.6559L18.6305 8.76744C18.7077 8.21584 18.6655 7.6541 18.5068 7.12022C18.348 6.58635 18.0765 6.0928 17.7104 5.67299ZM1.55539 12.1115V8.22305C1.55539 7.60428 1.8012 7.01085 2.23873 6.57331C2.67627 6.13577 3.2697 5.88997 3.88847 5.88997H5.44386V14.4446H3.88847C3.2697 14.4446 2.67627 14.1988 2.23873 13.7613C1.8012 13.3237 1.55539 12.7303 1.55539 12.1115ZM17.0867 8.5489L16.5377 12.4374C16.4574 12.9926 16.1805 13.5007 15.7573 13.869C15.3342 14.2374 14.7928 14.4416 14.2318 14.4446H6.99925V5.6831C7.07255 5.61925 7.13322 5.54222 7.17812 5.45601L8.8805 2.00693C8.94434 1.89178 9.03459 1.79342 9.14385 1.71994C9.2531 1.64645 9.37823 1.59994 9.50896 1.58423C9.63968 1.56851 9.77227 1.58404 9.89583 1.62954C10.0194 1.67504 10.1304 1.74921 10.2197 1.84595C10.2961 1.9348 10.352 2.03942 10.3833 2.15234C10.4146 2.26526 10.4206 2.3837 10.4009 2.49922L9.99027 4.98784C9.97225 5.09903 9.97859 5.21282 10.0089 5.32132C10.0392 5.42982 10.0926 5.53045 10.1656 5.61624C10.2386 5.70203 10.3294 5.77094 10.4317 5.81821C10.5339 5.86547 10.6452 5.88995 10.7579 5.88997H14.7762C15.1101 5.88992 15.4402 5.96156 15.7441 6.10006C16.048 6.23855 16.3186 6.44066 16.5376 6.69273C16.7566 6.9448 16.919 7.24096 17.0138 7.56118C17.1085 7.8814 17.1334 8.21823 17.0867 8.5489Z" fill="#4E5AFE"/>
</svg>
