<svg width="26" height="24" viewBox="0 0 26 24" fill="none" xmlns="http://www.w3.org/2000/svg">
<path d="M2.32637 16.4211V16.6211H2.52637H22.7369H22.9369V16.4211V2.52632V2.32632H22.7369H2.52637H2.32637V2.52632V16.4211ZM13.8948 18.7474H13.6948V18.9474V21.4737V21.6737H13.8948H18.7474V23.8H6.51584V21.6737H11.3685H11.5685V21.4737V18.9474V18.7474H11.3685H1.25369C1.11434 18.7465 0.976537 18.7181 0.848151 18.6639C0.719582 18.6096 0.602985 18.5305 0.505045 18.4311C0.407106 18.3317 0.329751 18.2139 0.277413 18.0845C0.225074 17.9552 0.198782 17.8167 0.200043 17.6772L0.200051 17.6772V17.6754V1.272C0.200051 0.67871 0.686671 0.2 1.2531 0.2H24.0102C24.5893 0.2 25.0632 0.674998 25.0632 1.272V17.6754C25.0632 18.2687 24.5766 18.7474 24.0102 18.7474H13.8948Z" fill="#4E5AFE" stroke="white" stroke-width="0.4"/>
</svg>
