<svg width="16" height="24" viewBox="0 0 16 24" fill="none" xmlns="http://www.w3.org/2000/svg">
<path d="M12 0C12.8851 0 13.6511 0.323404 14.2979 0.970213C14.9447 1.61702 15.2681 2.38298 15.2681 3.26809V20.7319C15.2681 21.617 14.9447 22.383 14.2979 23.0298C13.6511 23.6766 12.8851 24 12 24H3.26809C2.34894 24 1.57447 23.6766 0.944681 23.0298C0.314894 22.383 0 21.617 0 20.7319V3.26809C0 2.38298 0.314894 1.61702 0.944681 0.970213C1.57447 0.323404 2.34894 0 3.26809 0H12ZM9.80426 21.8043V20.7319H5.46383V21.8043H9.80426ZM13.3277 18.5362V3.26809H1.88936V18.5362H13.3277Z" fill="#4E5AFE"/>
</svg>
