<svg width="170" height="27" viewBox="0 0 170 27" fill="none" xmlns="http://www.w3.org/2000/svg">
<path d="M0.98 12.92C0.98 11.7067 1.19467 10.512 1.624 9.336C2.05333 8.16 2.67867 7.096 3.5 6.144C4.34 5.192 5.348 4.436 6.524 3.876C7.71867 3.29733 9.08133 3.008 10.612 3.008C12.404 3.008 13.9533 3.40933 15.26 4.212C16.5667 5.01467 17.5373 6.06 18.172 7.348L15.708 9C15.3347 8.19733 14.8587 7.572 14.28 7.124C13.72 6.65733 13.104 6.33067 12.432 6.144C11.7787 5.93867 11.1347 5.836 10.5 5.836C9.45467 5.836 8.54 6.05067 7.756 6.48C6.972 6.89067 6.30933 7.44133 5.768 8.132C5.24533 8.82267 4.844 9.59733 4.564 10.456C4.30267 11.3147 4.172 12.1733 4.172 13.032C4.172 14.32 4.44267 15.524 4.984 16.644C5.544 17.7453 6.3 18.6413 7.252 19.332C8.22267 20.004 9.33333 20.34 10.584 20.34C11.2187 20.34 11.8813 20.228 12.572 20.004C13.2627 19.78 13.8973 19.4347 14.476 18.968C15.0547 18.4827 15.5213 17.848 15.876 17.064L18.48 18.548C18.0693 19.5373 17.4253 20.3773 16.548 21.068C15.6893 21.7587 14.7187 22.2813 13.636 22.636C12.572 22.9907 11.5173 23.168 10.472 23.168C9.072 23.168 7.79333 22.8787 6.636 22.3C5.47867 21.7027 4.48 20.9187 3.64 19.948C2.8 18.9587 2.14667 17.8573 1.68 16.644C1.21333 15.412 0.98 14.1707 0.98 12.92ZM20.9886 23V8.356H24.0406V14.152H25.4966L29.8086 8.356H33.2246L27.8766 15.44L33.8406 23H30.2846L25.4686 16.924H24.0406V23H20.9886ZM36.1917 23V8.384H39.2718V18.884L46.6918 8.356H49.4918V23H46.4118V12.724L39.0758 23H36.1917ZM51.7722 26.5V20.284H52.1082C52.6309 20.284 53.0976 20.0787 53.5082 19.668C53.9376 19.2573 54.2829 18.5107 54.5442 17.428C54.8242 16.3453 54.9922 14.796 55.0482 12.78L55.2162 8.356H65.6602V20.284H67.6762V26.5H64.9602V23H54.4602V26.5H51.7722ZM56.1682 20.284H62.5802V11.016H57.9322L57.8482 13.06C57.7549 15.2067 57.5682 16.84 57.2882 17.96C57.0269 19.08 56.6536 19.8547 56.1682 20.284ZM70.2894 23V8.356H73.3414V14.152H74.7974L79.1094 8.356H82.5254L77.1774 15.44L83.1414 23H79.5854L74.7694 16.924H73.3414V23H70.2894ZM84.3738 18.716C84.3738 17.7827 84.6352 16.9707 85.1578 16.28C85.6805 15.5707 86.4085 15.0293 87.3418 14.656C88.2938 14.264 89.3858 14.068 90.6178 14.068C91.2712 14.068 91.9338 14.124 92.6058 14.236C93.2965 14.3293 93.9032 14.4693 94.4258 14.656V13.732C94.4258 12.7053 94.1178 11.9027 93.5018 11.324C92.8858 10.7453 91.9992 10.456 90.8418 10.456C90.0392 10.456 89.2645 10.596 88.5178 10.876C87.7712 11.156 86.9965 11.5667 86.1938 12.108L85.1578 10.036C86.1285 9.40133 87.0992 8.92533 88.0698 8.608C89.0592 8.272 90.0952 8.104 91.1778 8.104C93.1378 8.104 94.6778 8.62667 95.7978 9.672C96.9365 10.6987 97.5058 12.164 97.5058 14.068V19.528C97.5058 19.8827 97.5618 20.1347 97.6738 20.284C97.8045 20.4333 98.0192 20.5173 98.3178 20.536V23C98.0378 23.056 97.7858 23.0933 97.5618 23.112C97.3378 23.1307 97.1512 23.14 97.0018 23.14C96.3298 23.14 95.8258 22.9813 95.4898 22.664C95.1725 22.328 94.9858 21.9547 94.9298 21.544L94.8458 20.704C94.2112 21.5253 93.3992 22.16 92.4098 22.608C91.4205 23.056 90.4218 23.28 89.4138 23.28C88.4432 23.28 87.5752 23.084 86.8098 22.692C86.0445 22.2813 85.4472 21.7307 85.0178 21.04C84.5885 20.3493 84.3738 19.5747 84.3738 18.716ZM93.6978 19.612C94.1832 19.1267 94.4258 18.6693 94.4258 18.24V16.56C93.3245 16.1493 92.2045 15.944 91.0658 15.944C89.9458 15.944 89.0312 16.1773 88.3218 16.644C87.6312 17.092 87.2858 17.6987 87.2858 18.464C87.2858 19.0987 87.5378 19.6867 88.0418 20.228C88.5645 20.7507 89.3112 21.012 90.2818 21.012C90.9352 21.012 91.5698 20.8813 92.1858 20.62C92.8018 20.3587 93.3058 20.0227 93.6978 19.612ZM118.717 20.228V23H108.16V20.228H111.997V6.06C111.791 6.35867 111.427 6.69467 110.905 7.068C110.382 7.44133 109.813 7.768 109.197 8.048C108.581 8.328 108.021 8.468 107.517 8.468V5.612C108.002 5.612 108.506 5.48133 109.029 5.22C109.551 4.95867 110.037 4.66 110.485 4.324C110.933 3.96933 111.287 3.652 111.549 3.372C111.829 3.092 111.978 2.94267 111.997 2.924H115.161V20.228H118.717ZM129.072 23.28C127.672 23.2613 126.44 22.944 125.376 22.328C124.312 21.6933 123.425 20.8813 122.716 19.892C122.007 18.884 121.465 17.8013 121.092 16.644C120.737 15.468 120.56 14.32 120.56 13.2C120.56 12.0053 120.756 10.8107 121.148 9.616C121.54 8.42133 122.1 7.33867 122.828 6.368C123.575 5.37867 124.471 4.59467 125.516 4.016C126.561 3.41867 127.747 3.12 129.072 3.12C130.472 3.12 131.695 3.43733 132.74 4.072C133.804 4.70667 134.691 5.528 135.4 6.536C136.109 7.544 136.641 8.636 136.996 9.812C137.369 10.988 137.556 12.1173 137.556 13.2C137.556 14.4133 137.36 15.6173 136.968 16.812C136.576 17.988 136.007 19.0613 135.26 20.032C134.532 21.0027 133.645 21.7867 132.6 22.384C131.555 22.9627 130.379 23.2613 129.072 23.28ZM123.752 13.2C123.789 14.04 123.92 14.8893 124.144 15.748C124.368 16.6067 124.695 17.3907 125.124 18.1C125.553 18.8093 126.095 19.3787 126.748 19.808C127.401 20.2373 128.176 20.452 129.072 20.452C129.987 20.452 130.771 20.228 131.424 19.78C132.096 19.3133 132.647 18.716 133.076 17.988C133.505 17.2413 133.823 16.448 134.028 15.608C134.252 14.768 134.364 13.9653 134.364 13.2C134.364 12.36 134.243 11.5107 134 10.652C133.776 9.79333 133.44 9.00933 132.992 8.3C132.544 7.59067 131.984 7.02133 131.312 6.592C130.659 6.16267 129.912 5.948 129.072 5.948C128.157 5.948 127.364 6.18133 126.692 6.648C126.02 7.096 125.469 7.69333 125.04 8.44C124.611 9.168 124.284 9.952 124.06 10.792C123.855 11.632 123.752 12.4347 123.752 13.2Z" fill="white"/>
<path d="M152.986 16.9872L160.987 8.98608" stroke="white" stroke-width="2" stroke-linecap="round" stroke-linejoin="round"/>
<path d="M153.653 10.3196C154.021 10.3196 154.32 10.0211 154.32 9.65284C154.32 9.2846 154.021 8.98608 153.653 8.98608C153.285 8.98608 152.986 9.2846 152.986 9.65284C152.986 10.0211 153.285 10.3196 153.653 10.3196Z" stroke="white" stroke-width="2" stroke-linecap="round" stroke-linejoin="round"/>
<path d="M160.32 16.9872C160.688 16.9872 160.987 16.6887 160.987 16.3204C160.987 15.9522 160.688 15.6537 160.32 15.6537C159.952 15.6537 159.653 15.9522 159.653 16.3204C159.653 16.6887 159.952 16.9872 160.32 16.9872Z" stroke="white" stroke-width="2" stroke-linecap="round" stroke-linejoin="round"/>
<path d="M147.652 6.58577C147.652 5.80769 147.961 5.06148 148.511 4.5113C149.061 3.96112 149.808 3.65203 150.586 3.65203H151.919C152.694 3.65158 153.437 3.34479 153.986 2.79857L154.92 1.86511C155.192 1.59094 155.516 1.37336 155.873 1.2249C156.231 1.07643 156.613 1 157 1C157.387 1 157.769 1.07643 158.127 1.2249C158.484 1.37336 158.808 1.59094 159.08 1.86511L160.014 2.79857C160.563 3.34479 161.306 3.65158 162.081 3.65203H163.414C164.192 3.65203 164.939 3.96112 165.489 4.5113C166.039 5.06148 166.348 5.80769 166.348 6.58577V7.91929C166.348 8.69393 166.655 9.43695 167.201 9.98624L168.135 10.9197C168.409 11.1923 168.627 11.5165 168.775 11.8735C168.924 12.2305 169 12.6133 169 13C169 13.3867 168.924 13.7695 168.775 14.1265C168.627 14.4835 168.409 14.8077 168.135 15.0803L167.201 16.0138C166.655 16.563 166.348 17.3061 166.348 18.0807V19.4142C166.348 20.1923 166.039 20.9385 165.489 21.4887C164.939 22.0389 164.192 22.348 163.414 22.348H162.081C161.306 22.3484 160.563 22.6552 160.014 23.2014L159.08 24.1349C158.808 24.4091 158.484 24.6266 158.127 24.7751C157.769 24.9236 157.387 25 157 25C156.613 25 156.231 24.9236 155.873 24.7751C155.516 24.6266 155.192 24.4091 154.92 24.1349L153.986 23.2014C153.437 22.6552 152.694 22.3484 151.919 22.348H150.586C149.808 22.348 149.061 22.0389 148.511 21.4887C147.961 20.9385 147.652 20.1923 147.652 19.4142V18.0807C147.652 17.3061 147.345 16.563 146.799 16.0138L145.865 15.0803C145.591 14.8077 145.373 14.4835 145.225 14.1265C145.076 13.7695 145 13.3867 145 13C145 12.6133 145.076 12.2305 145.225 11.8735C145.373 11.5165 145.591 11.1923 145.865 10.9197L146.799 9.98624C147.345 9.43695 147.652 8.69393 147.652 7.91929V6.58577" stroke="white" stroke-width="2" stroke-linecap="round" stroke-linejoin="round"/>
</svg>
