<svg width="52" height="52" viewBox="0 0 52 52" fill="none" xmlns="http://www.w3.org/2000/svg">
<g filter="url(#filter0_d_1609_5006)">
<rect x="6" y="6" width="40" height="40" rx="20" fill="white"/>
</g>
<path d="M35.943 19.5266L32.9248 33.7602C32.6969 34.7646 32.1033 35.0146 31.2596 34.5417L26.6606 31.1528L24.4418 33.2873C24.196 33.5331 23.991 33.7381 23.5174 33.7381L23.8481 29.0547L32.3712 21.3532C32.7419 21.0232 32.2905 20.8396 31.7954 21.1703L21.2586 27.8053L16.7224 26.3851C15.7359 26.0773 15.718 25.3986 16.9281 24.925L34.6707 18.0893C35.4922 17.7814 36.2109 18.2721 35.943 19.5273V19.5266Z" fill="#4E5AFE"/>
<defs>
<filter id="filter0_d_1609_5006" x="0" y="0" width="52" height="52" filterUnits="userSpaceOnUse" color-interpolation-filters="sRGB">
<feFlood flood-opacity="0" result="BackgroundImageFix"/>
<feColorMatrix in="SourceAlpha" type="matrix" values="0 0 0 0 0 0 0 0 0 0 0 0 0 0 0 0 0 0 127 0" result="hardAlpha"/>
<feOffset/>
<feGaussianBlur stdDeviation="3"/>
<feComposite in2="hardAlpha" operator="out"/>
<feColorMatrix type="matrix" values="0 0 0 0 0.0901961 0 0 0 0 0.0784314 0 0 0 0 0.231373 0 0 0 0.16 0"/>
<feBlend mode="normal" in2="BackgroundImageFix" result="effect1_dropShadow_1609_5006"/>
<feBlend mode="normal" in="SourceGraphic" in2="effect1_dropShadow_1609_5006" result="shape"/>
</filter>
</defs>
</svg>
