<?xml version="1.0" encoding="UTF-8" standalone="no" ?>
<!DOCTYPE svg PUBLIC "-//W3C//DTD SVG 1.1//EN" "http://www.w3.org/Graphics/SVG/1.1/DTD/svg11.dtd">
<svg xmlns="http://www.w3.org/2000/svg" xmlns:xlink="http://www.w3.org/1999/xlink" version="1.1" width="20" height="20" viewBox="0 0 20 20" xml:space="preserve">
<desc>Created with Fabric.js 4.6.0</desc>
<defs>
</defs>
<g transform="matrix(1 0 0 -1 10 10)" id="GFeGpEzxNBZLIZEL5WM9S"  >
<path style="stroke: none; stroke-width: 1; stroke-dasharray: none; stroke-linecap: butt; stroke-dashoffset: 0; stroke-linejoin: miter; stroke-miterlimit: 4; fill: rgb(78,90,254); fill-rule: nonzero; opacity: 1;" vector-effect="non-scaling-stroke"  transform=" translate(0, 0)" d="M 8.17426 9.97379 C 7.68351 9.847959999999999 -9.13495 4.372179999999999 -9.284669999999998 4.285399999999999 C -9.534199999999998 4.1465499999999995 -9.746299999999998 3.8992299999999993 -9.891859999999998 3.582489999999999 C -9.983359999999998 3.378559999999999 -9.999989999999997 3.2874399999999993 -9.999989999999997 2.931639999999999 C -9.999989999999997 2.562829999999999 -9.987509999999997 2.493399999999999 -9.883539999999996 2.2807899999999988 C -9.746299999999996 1.9987599999999988 -9.525879999999997 1.7514399999999988 -9.288819999999996 1.6039099999999986 C -9.197319999999996 1.5474999999999985 -7.363259999999996 0.8836399999999986 -5.213129999999996 0.13299999999999867 C -3.067149999999996 -0.6219800000000013 -1.287159999999996 -1.2598100000000014 -1.258049999999996 -1.2901800000000012 C -1.228939999999996 -1.3205500000000012 -0.5676799999999959 -3.069160000000001 0.21003000000000416 -5.182230000000001 C 0.9919000000000041 -7.295310000000001 1.6822700000000042 -9.11767 1.7446500000000043 -9.239160000000002 C 1.8902100000000042 -9.512510000000002 2.210440000000004 -9.785870000000003 2.526520000000004 -9.911700000000002 C 2.871710000000004 -10.046210000000002 3.416520000000004 -10.024510000000001 3.7492300000000043 -9.863970000000002 C 4.061150000000004 -9.707770000000002 4.289880000000005 -9.490820000000001 4.439600000000004 -9.187090000000001 C 4.510300000000004 -9.048240000000002 5.791230000000004 -5.108460000000001 7.284270000000004 -0.4310500000000008 C 9.962580000000004 7.960509999999999 9.995850000000004 8.07766 10.000010000000003 8.42044 C 10.000010000000003 8.70247 9.979220000000003 8.81095 9.891880000000004 9.01488 C 9.762960000000003 9.30559 9.496790000000004 9.62234 9.247260000000004 9.7742 C 8.939500000000004 9.96078 8.473710000000004 10.047550000000001 8.174270000000003 9.973790000000001 z" stroke-linecap="round" />
</g>
</svg>