<svg width="20" height="20" viewBox="0 0 20 20" fill="none" xmlns="http://www.w3.org/2000/svg">
<path d="M10 20C8.02219 20 6.08879 19.4135 4.4443 18.3147C2.79981 17.2159 1.51809 15.6541 0.761209 13.8268C0.00433286 11.9996 -0.193701 9.98891 0.192152 8.0491C0.578004 6.10929 1.53041 4.32746 2.92894 2.92894C4.32746 1.53041 6.10929 0.578004 8.0491 0.192152C9.98891 -0.193701 11.9996 0.00433286 13.8268 0.761209C15.6541 1.51809 17.2159 2.79981 18.3147 4.4443C19.4135 6.08879 20 8.02219 20 10C19.9971 12.6513 18.9426 15.1932 17.0679 17.0679C15.1932 18.9426 12.6513 19.9971 10 20ZM10 1.66667C8.35183 1.66667 6.74066 2.15541 5.37025 3.07109C3.99984 3.98677 2.93174 5.28826 2.30101 6.81098C1.67028 8.33369 1.50525 10.0092 1.82679 11.6258C2.14834 13.2423 2.94201 14.7271 4.10745 15.8926C5.27289 17.058 6.75774 17.8517 8.37425 18.1732C9.99076 18.4948 11.6663 18.3297 13.189 17.699C14.7118 17.0683 16.0132 16.0002 16.9289 14.6298C17.8446 13.2593 18.3333 11.6482 18.3333 10C18.3309 7.79061 17.4522 5.67241 15.8899 4.11013C14.3276 2.54785 12.2094 1.6691 10 1.66667ZM6.66667 11.6667C6.53662 11.6661 6.40824 11.696 6.29179 11.7539C6.17535 11.8118 6.07408 11.8962 5.99609 12.0002C5.91809 12.1043 5.86554 12.2252 5.84264 12.3532C5.81973 12.4812 5.8271 12.6128 5.86417 12.7375C6.16275 13.6104 6.7178 14.3729 7.45674 14.9252C8.19568 15.4776 9.08411 15.7941 10.0058 15.8333C10.928 15.797 11.8173 15.4815 12.5563 14.9287C13.2952 14.3759 13.8489 13.6118 14.1442 12.7375C14.1775 12.613 14.1822 12.4826 14.1577 12.356C14.1333 12.2295 14.0805 12.1102 14.0032 12.007C13.9259 11.9039 13.8262 11.8197 13.7116 11.7607C13.597 11.7018 13.4705 11.6696 13.3417 11.6667H6.66667ZM5 8.33334C5 9.16667 5.74584 9.16667 6.66667 9.16667C7.5875 9.16667 8.33334 9.16667 8.33334 8.33334C8.33334 7.89131 8.15774 7.46739 7.84518 7.15483C7.53262 6.84227 7.1087 6.66667 6.66667 6.66667C6.22464 6.66667 5.80072 6.84227 5.48816 7.15483C5.1756 7.46739 5 7.89131 5 8.33334ZM11.6667 8.33334C11.6667 9.16667 12.4125 9.16667 13.3333 9.16667C14.2542 9.16667 15 9.16667 15 8.33334C15 7.89131 14.8244 7.46739 14.5118 7.15483C14.1993 6.84227 13.7754 6.66667 13.3333 6.66667C12.8913 6.66667 12.4674 6.84227 12.1548 7.15483C11.8423 7.46739 11.6667 7.89131 11.6667 8.33334Z" fill="#4E5AFE"/>
</svg>
