<svg width="16" height="16" viewBox="0 0 16 16" fill="none" xmlns="http://www.w3.org/2000/svg">
<path d="M12.0974 6.8432L7.58344 2.32925C7.37527 2.11372 7.26009 1.82505 7.26269 1.52542C7.2653 1.22579 7.38548 0.939168 7.59736 0.727289C7.80924 0.51541 8.09586 0.395225 8.39549 0.392621C8.69512 0.390018 8.98379 0.505203 9.19932 0.713368L15.664 7.17803C15.7705 7.28391 15.855 7.4098 15.9126 7.54846C15.9703 7.68711 16 7.8358 16 7.98597C16 8.13614 15.9703 8.28483 15.9126 8.42349C15.855 8.56214 15.7705 8.68803 15.664 8.79391L9.19932 15.2586C9.0939 15.3677 8.9678 15.4548 8.82838 15.5147C8.68896 15.5746 8.539 15.6061 8.38727 15.6074C8.23553 15.6087 8.08505 15.5798 7.94461 15.5224C7.80417 15.4649 7.67657 15.38 7.56927 15.2727C7.46198 15.1654 7.37712 15.0379 7.31966 14.8974C7.2622 14.757 7.23329 14.6065 7.23461 14.4547C7.23593 14.303 7.26745 14.1531 7.32734 14.0136C7.38723 13.8742 7.47429 13.7481 7.58344 13.6427L12.0974 9.12874H1.14277C0.83969 9.12874 0.549022 9.00835 0.334711 8.79404C0.120399 8.57972 0 8.28905 0 7.98597C0 7.68289 0.120399 7.39222 0.334711 7.17791C0.549022 6.9636 0.83969 6.8432 1.14277 6.8432H12.0974Z" fill="#4E5AFE"/>
</svg>
