<svg width="8" height="5" viewBox="0 0 8 5" fill="none" xmlns="http://www.w3.org/2000/svg">
<path d="M1.22597 0.209063L4.00373 2.98683L6.78149 0.209063C6.84778 0.142782 6.92646 0.0902052 7.01306 0.0543341C7.09966 0.0184631 7.19248 6.98386e-10 7.28621 0C7.37995 -6.98382e-10 7.47277 0.0184631 7.55937 0.0543341C7.64597 0.0902052 7.72466 0.142782 7.79094 0.209063C7.85722 0.275344 7.9098 0.354031 7.94567 0.440632C7.98154 0.527232 8 0.62005 8 0.713785C8 0.807521 7.98154 0.900338 7.94567 0.986939C7.9098 1.07354 7.85722 1.15223 7.79094 1.21851L4.50487 4.50457C4.43864 4.57094 4.35997 4.62359 4.27336 4.65952C4.18676 4.69545 4.09391 4.71394 4.00015 4.71394C3.90639 4.71394 3.81355 4.69545 3.72694 4.65952C3.64033 4.62359 3.56166 4.57094 3.49543 4.50457L0.209366 1.21851C0.142998 1.15228 0.0903436 1.0736 0.0544178 0.986997C0.018492 0.90039 0 0.807548 0 0.713785C0 0.620022 0.018492 0.52718 0.0544178 0.440573C0.0903436 0.353966 0.142998 0.275295 0.209366 0.209063C0.488574 -0.0629859 0.946761 -0.0701451 1.22597 0.209063Z" fill="#86858A"/>
</svg>
