<svg width="32" height="24" viewBox="0 0 32 24" fill="none" xmlns="http://www.w3.org/2000/svg">
<path d="M26.8796 11.622C27.5211 10.4765 27.8583 9.19078 27.8583 7.86035C27.8583 3.60536 24.3966 0.143677 20.1416 0.143677C18.4382 0.143677 16.8232 0.687676 15.4713 1.71699C14.246 2.64986 13.3152 3.94879 12.8259 5.39992C9.09173 5.93692 6.21249 9.15697 6.21249 13.0374V13.6041H5.12812C2.3005 13.6041 0 15.9046 0 18.7322C0 21.5598 2.3005 23.8603 5.12812 23.8603H6.97505C7.23392 23.8603 7.4438 23.6505 7.4438 23.3916C7.4438 23.1326 7.23392 22.9228 6.97505 22.9228H5.12812C2.81743 22.9228 0.937498 21.0429 0.937498 18.7322C0.937498 16.4215 2.81743 14.5416 5.12812 14.5416H9.78748C10.0464 14.5416 10.2562 14.3318 10.2562 14.0728C10.2562 13.8139 10.0464 13.6041 9.78748 13.6041H7.14999V13.0374C7.14999 9.29935 10.1911 6.25823 13.9292 6.25823C17.2806 6.25823 20.1652 8.75604 20.6391 12.0684C20.6428 12.094 20.6496 12.1436 20.6496 12.1436C20.6883 12.4361 20.7083 12.7345 20.7083 13.0374C20.7083 13.697 20.6139 14.3487 20.4276 14.9746C20.3538 15.2228 20.4951 15.4837 20.7432 15.5576C20.7878 15.5708 20.8328 15.5771 20.8771 15.5771C21.0791 15.5771 21.2656 15.4455 21.3262 15.242C21.5383 14.5293 21.6458 13.7876 21.6458 13.0374C21.6458 12.8468 21.6381 12.658 21.6245 12.4708H25.8365C28.7181 12.4708 31.0625 14.8151 31.0625 17.6968C31.0625 20.5784 28.7181 22.9228 25.8365 22.9228H8.84998C8.59111 22.9228 8.38123 23.1326 8.38123 23.3916C8.38123 23.6505 8.59111 23.8603 8.84998 23.8603H25.8365C29.235 23.8603 32 21.0954 32 17.6968C31.9999 14.6537 29.7831 12.119 26.8796 11.622ZM19.0055 7.22573C17.6004 5.99729 15.7976 5.32079 13.9292 5.32079C13.9045 5.32079 13.88 5.32148 13.8555 5.32173C14.8791 2.79505 17.3738 1.08124 20.1416 1.08124C23.8797 1.08124 26.9208 4.12236 26.9208 7.86041C26.9208 9.17422 26.5479 10.4387 25.8404 11.5333C25.8391 11.5333 25.8378 11.5333 25.8365 11.5333H21.4986C21.1691 9.86947 20.2937 8.35204 19.0055 7.22573Z" fill="#86858A"/>
</svg>
