<svg width="21" height="16" viewBox="0 0 21 16" fill="none" xmlns="http://www.w3.org/2000/svg">
<path d="M12.9464 2.40509C13.1777 3.72448 12.4815 4.99857 11.254 5.50628L11.2538 5.50636C10.9804 5.62007 10.8089 5.91924 10.8089 6.24013V7.27285V7.37285H10.9089H11.6362C12.6848 7.37285 13.2637 8.00275 13.9084 8.71105L13.9084 8.71109L13.9086 8.71126C14.7512 9.63595 15.9085 10.906 18.9144 11.9563C19.7217 12.2391 20.2634 13.0006 20.2634 13.8517V13.8909C20.2634 14.9986 19.362 15.9 18.2543 15.9H2.10906C1.00167 15.9 0.1 14.996 0.1 13.8851C0.1 12.9997 0.64251 12.2387 1.44896 11.957L1.44899 11.957C4.45499 10.9059 5.613 9.63581 6.45495 8.71106L6.45496 8.71105C7.09966 8.00275 7.67855 7.37285 8.72715 7.37285H9.45441H9.55441V7.27285V6.24013C9.55441 5.39367 10.0356 4.65218 10.7747 4.34642C11.4554 4.0656 11.8394 3.35536 11.7107 2.62217L11.7107 2.62216C11.6031 2.00912 11.0826 1.48789 10.4688 1.38025L10.4687 1.38023C9.45745 1.20406 8.62715 1.97766 8.62715 2.90927C8.62715 3.25549 8.34611 3.53653 7.99989 3.53653C7.65367 3.53653 7.37263 3.25549 7.37263 2.90927C7.37263 1.16505 8.94469 -0.163223 10.6857 0.144512L10.6858 0.144534C11.8174 0.343074 12.7479 1.27348 12.9464 2.40509ZM12.9464 2.40509L13.0449 2.38782L12.9464 2.40509ZM1.86296 13.1406L1.86295 13.1406C1.55953 13.2467 1.35453 13.5321 1.35453 13.8509C1.35453 14.3006 1.68905 14.6455 2.10906 14.6455H18.2543C18.6702 14.6455 19.0088 14.3069 19.0088 13.8909V13.8517C19.0088 13.532 18.8038 13.2468 18.4998 13.1399L18.4996 13.1398C15.1901 11.9832 13.8623 10.5236 12.9811 9.55503L12.9807 9.55461L12.9807 9.55459C12.6801 9.22444 12.4641 8.99275 12.267 8.84531C12.0633 8.69288 11.8762 8.62737 11.6362 8.62737H8.72715C8.48713 8.62737 8.30003 8.69288 8.09634 8.84531C7.89929 8.99275 7.68321 9.22444 7.38267 9.55459L7.38104 9.55639C6.49906 10.525 5.17089 11.9838 1.86296 13.1406Z" fill="#86858A" stroke="white" stroke-width="0.2"/>
</svg>
