<svg width="30" height="32" viewBox="0 0 30 32" fill="none" xmlns="http://www.w3.org/2000/svg">
<path d="M21.413 7.30568C19.4795 5.46037 16.9352 4.52197 14.2648 4.64793C9.24533 4.88725 5.20203 9.01243 5.06977 14.0445C4.9879 17.1368 6.40494 20.1032 8.86115 21.9863C10.0704 22.9121 10.7883 24.4236 10.7883 26.0296V26.4452C10.1333 26.6216 9.6421 27.2199 9.6421 27.9315V28.1583C9.6421 29.0148 10.3349 29.7076 11.1914 29.7076H11.4559C11.3992 29.8713 11.3614 30.0414 11.3614 30.224V30.4507C11.3614 31.3073 12.0542 32 12.9107 32H16.5636C17.4201 32 18.1129 31.3073 18.1129 30.4507V30.224C18.1129 30.0414 18.0751 29.8713 18.0184 29.7076H18.2829C19.1394 29.7076 19.8322 29.0148 19.8322 28.1583V27.9315C19.8322 27.2199 19.3473 26.6216 18.686 26.4452V26.0296C18.686 24.4362 19.4417 22.9246 20.758 21.8729C23.082 20.0276 24.4108 17.2691 24.4108 14.309C24.4108 11.6387 23.3465 9.15098 21.413 7.30568ZM17.08 30.4444C17.08 30.7278 16.847 30.9609 16.5636 30.9609H12.9107C12.6273 30.9609 12.3943 30.7278 12.3943 30.4444V30.2177C12.3943 29.9343 12.6273 29.7013 12.9107 29.7013H16.5636C16.8533 29.7013 17.08 29.9343 17.08 30.2177V30.4444ZM18.7993 27.9315V28.1583C18.7993 28.4417 18.5663 28.6747 18.2829 28.6747H16.5636H12.9107H11.1914C10.908 28.6747 10.675 28.4417 10.675 28.1583V27.9315C10.675 27.6481 10.908 27.4151 11.1914 27.4151H18.2829C18.5663 27.4151 18.7993 27.6481 18.7993 27.9315ZM13.0745 19.5174H12.0164C11.5882 19.5174 11.2418 19.1711 11.2418 18.7428V18.4594C11.2418 18.0311 11.5882 17.6847 12.0164 17.6847H12.2998C12.7281 17.6847 13.0745 18.0311 13.0745 18.4594V19.5174ZM14.1074 26.3822V20.544H15.367V26.3822H14.1074ZM20.1156 21.0667C18.5537 22.3074 17.6594 24.115 17.6594 26.0296V26.3822H16.3998V20.544H17.4579C18.453 20.544 19.2654 19.7316 19.2654 18.7365V18.4531C19.2654 17.458 18.453 16.6456 17.4579 16.6456H17.1745C16.1794 16.6456 15.367 17.458 15.367 18.4531V19.5111H14.1074V18.4531C14.1074 17.458 13.2949 16.6456 12.2998 16.6456H12.0164C11.0214 16.6456 10.2089 17.458 10.2089 18.4531V18.7365C10.2089 19.7316 11.0214 20.544 12.0164 20.544H13.0745V26.3822H11.8149V26.0296C11.8149 24.1024 10.9395 22.2886 9.47835 21.1675C7.28666 19.486 6.02076 16.8345 6.09004 14.0697C6.2097 9.57924 9.81844 5.89493 14.3026 5.6808C16.6895 5.56744 18.9631 6.41136 20.6887 8.05514C22.4144 9.7052 23.3654 11.9221 23.3654 14.309C23.378 16.9542 22.1877 19.4167 20.1156 21.0667ZM16.3998 19.5174V18.4594C16.3998 18.0311 16.7462 17.6847 17.1745 17.6847H17.4579C17.8861 17.6847 18.2325 18.0311 18.2325 18.4594V18.7428C18.2325 19.1711 17.8861 19.5174 17.4579 19.5174H16.3998Z" fill="#17143B"/>
<path d="M15.2536 0H14.2207V2.85928H15.2536V0Z" fill="#4E5AFE"/>
<path d="M7.34748 4.89777L5.32568 2.87598L4.59534 3.60632L6.61714 5.62811L7.34748 4.89777Z" fill="#4E5AFE"/>
<path d="M22.1281 4.90052L22.8584 5.63086L24.8802 3.60906L24.1499 2.87872L22.1281 4.90052Z" fill="#4E5AFE"/>
<path d="M2.85928 12.502H0V13.5348H2.85928V12.502Z" fill="#4E5AFE"/>
<path d="M29.4745 12.502H26.6152V13.5348H29.4745V12.502Z" fill="#4E5AFE"/>
</svg>
