<svg width="17" height="16" viewBox="0 0 17 16" fill="none" xmlns="http://www.w3.org/2000/svg">
<path d="M15.7279 3.24183L12.8014 0.300417C12.608 0.108011 12.3463 0 12.0735 0C11.8007 0 11.539 0.108011 11.3457 0.300417L0.970939 10.6602L0.0237043 14.7482C-0.00897212 14.8977 -0.00785195 15.0525 0.0269829 15.2015C0.0618177 15.3504 0.129487 15.4897 0.225048 15.6092C0.320609 15.7286 0.441647 15.8252 0.579321 15.8919C0.716994 15.9586 0.867824 15.9937 1.02079 15.9946C1.09207 16.0018 1.16389 16.0018 1.23517 15.9946L5.3681 15.0474L15.7279 4.69758C15.9203 4.5042 16.0283 4.2425 16.0283 3.9697C16.0283 3.69691 15.9203 3.43521 15.7279 3.24183V3.24183ZM4.86956 14.15L0.995866 14.9626L1.87829 11.1637L9.64063 3.43128L12.6319 6.42254L4.86956 14.15ZM13.2999 5.69965L10.3087 2.70839L12.0436 0.983423L14.985 3.97469L13.2999 5.69965Z" fill="#4E5AFE"/>
</svg>
