<svg width="25" height="24" viewBox="0 0 25 24" fill="none" xmlns="http://www.w3.org/2000/svg">
<path d="M12.0482 0C5.42169 0 0 5.40964 0 12.0723C0 18.0964 4.40964 23.0964 10.1687 24V15.5663H7.10843V12.0723H10.1687V9.40964C10.1687 6.38554 11.9639 4.72289 14.7229 4.72289C16.0361 4.72289 17.4096 4.95181 17.4096 4.95181V7.92771H15.8916C14.3976 7.92771 13.9277 8.85542 13.9277 9.80723V12.0723H17.2771L16.7349 15.5663H13.9277V24C16.7668 23.5516 19.3521 22.103 21.2168 19.9157C23.0815 17.7284 24.1028 14.9466 24.0964 12.0723C24.0964 5.40964 18.6747 0 12.0482 0Z" fill="#17143B"/>
</svg>
