<svg width="18" height="16" viewBox="0 0 18 16" fill="none" xmlns="http://www.w3.org/2000/svg">
<path d="M8.86797 16C8.74549 15.9996 8.62658 15.9587 8.52982 15.8836C5.44771 13.4889 3.3246 11.4267 1.83897 9.3923C-0.0568606 6.79246 -0.489244 4.39218 0.55291 2.25798C1.29572 0.733553 3.42992 -0.513705 5.92444 0.212476C7.11379 0.556021 8.15148 1.29276 8.86797 2.30233C9.58446 1.29276 10.6221 0.556021 11.8115 0.212476C14.3005 -0.502619 16.4402 0.733553 17.183 2.25798C18.2252 4.39218 17.7928 6.79246 15.897 9.3923C14.4113 11.4267 12.2882 13.4889 9.20611 15.8836C9.10935 15.9587 8.99045 15.9996 8.86797 16ZM4.50533 1.11605C3.91178 1.09294 3.32314 1.23193 2.8026 1.51808C2.28206 1.80423 1.84928 2.22674 1.55072 2.74025C0.691495 4.50305 1.07953 6.4654 2.737 8.73264C4.49844 11.0046 6.56105 13.0262 8.86797 14.7417C11.1745 13.0279 13.2371 11.0082 14.9989 8.73818C16.6619 6.4654 17.0444 4.50305 16.1852 2.7458C15.6309 1.63712 13.9679 0.755727 12.1164 1.2768C11.5227 1.45225 10.9724 1.75005 10.5007 2.15104C10.0291 2.55202 9.64663 3.04731 9.37796 3.60502C9.33619 3.70669 9.26515 3.79365 9.17385 3.85485C9.08255 3.91605 8.97511 3.94873 8.8652 3.94873C8.75528 3.94873 8.64785 3.91605 8.55655 3.85485C8.46525 3.79365 8.3942 3.70669 8.35244 3.60502C8.08579 3.04591 7.70399 2.54947 7.23206 2.14823C6.76013 1.747 6.20873 1.45003 5.61401 1.2768C5.25368 1.17215 4.88055 1.11804 4.50533 1.11605Z" fill="url(#paint0_linear_60:105)"/>
<defs>
<linearGradient id="paint0_linear_60:105" x1="1" y1="2" x2="12" y2="13" gradientUnits="userSpaceOnUse">
<stop stop-color="#2ABFF9"/>
<stop offset="1" stop-color="#5AFFE7"/>
</linearGradient>
</defs>
</svg>
