<svg width="23" height="26" viewBox="0 0 23 26" fill="none" xmlns="http://www.w3.org/2000/svg">
<path d="M21.6079 16.8043C20.7412 15.9528 19.854 15.0709 19.854 10.9108C19.8514 8.90485 19.1385 6.96465 17.8417 5.43426C16.5449 3.90387 14.7481 2.88218 12.7698 2.55038L12.7199 2.54388C12.8874 2.29957 12.9849 2.01414 13.0019 1.71843C13.019 1.42272 12.9548 1.12799 12.8165 0.866081C12.6782 0.604174 12.4709 0.385057 12.217 0.232413C11.9632 0.0797694 11.6725 -0.000596016 11.3763 3.32794e-06C11.0801 0.000602672 10.7897 0.082144 10.5365 0.235814C10.2833 0.389484 10.0769 0.609438 9.93958 0.871902C9.8023 1.13437 9.73937 1.42936 9.75758 1.72499C9.7758 2.02063 9.87447 2.30567 10.0429 2.54929L10.0397 2.54388C5.97377 3.21882 2.91216 6.70728 2.90674 10.9108V10.9119C2.90674 15.072 2.01621 15.955 1.15276 16.8054C0.635092 17.2616 0.268655 17.8647 0.102228 18.5343C-0.0641989 19.2039 -0.022721 19.9084 0.22114 20.5539C0.465002 21.1993 0.899679 21.7552 1.46731 22.1475C2.03494 22.5398 2.70859 22.7499 3.39859 22.7499H8.12969C8.12969 23.6119 8.47211 24.4385 9.08163 25.0481C9.69114 25.6576 10.5178 26 11.3798 26C12.2418 26 13.0685 25.6576 13.678 25.0481C14.2875 24.4385 14.6299 23.6119 14.6299 22.7499H19.3643C20.0538 22.7498 20.727 22.5399 21.2944 22.148C21.8617 21.7561 22.2964 21.2008 22.5405 20.5559C22.7846 19.9111 22.8267 19.2071 22.6611 18.5378C22.4955 17.8684 22.13 17.2653 21.6134 16.8087L21.6101 16.8054L21.6079 16.8043ZM11.3798 23.9687C11.0567 23.9681 10.7471 23.8395 10.5186 23.6111C10.2902 23.3826 10.1616 23.0729 10.161 22.7499H12.5997C12.5991 23.0731 12.4704 23.383 12.2417 23.6114C12.013 23.8399 11.7031 23.9684 11.3798 23.9687ZM19.3534 20.3112H3.39968C3.21075 20.3101 3.02633 20.2534 2.86953 20.1479C2.71274 20.0425 2.59053 19.8932 2.51824 19.7187C2.44594 19.5441 2.42676 19.3521 2.46311 19.1667C2.49946 18.9813 2.58972 18.8107 2.72257 18.6764C4.17429 17.2247 5.34217 15.8466 5.34217 10.9086C5.34217 9.30761 5.97816 7.77219 7.11023 6.64011C8.24231 5.50804 9.77773 4.87205 11.3787 4.87205C12.9797 4.87205 14.5151 5.50804 15.6472 6.64011C16.7793 7.77219 17.4153 9.30761 17.4153 10.9086C17.4153 15.8683 18.5951 17.2355 20.0349 18.6764C20.1677 18.8107 20.258 18.9813 20.2943 19.1667C20.3307 19.3521 20.3115 19.5441 20.2392 19.7187C20.1669 19.8932 20.0447 20.0425 19.8879 20.1479C19.7311 20.2534 19.5467 20.3101 19.3578 20.3112H19.3534Z" fill="#4E5AFE"/>
</svg>
