<svg width="52" height="52" viewBox="0 0 52 52" fill="none" xmlns="http://www.w3.org/2000/svg">
<g filter="url(#filter0_d_1194_35)">
<rect x="6" y="6" width="40" height="40" rx="20" fill="white"/>
</g>
<g clip-path="url(#clip0_1194_35)">
<path d="M33.5001 19.3333H30.9167C30.7233 18.3928 30.2116 17.5478 29.4678 16.9406C28.724 16.3334 27.7936 16.0012 26.8334 16H25.1667C24.2066 16.0012 23.2762 16.3334 22.5324 16.9406C21.7886 17.5478 21.2768 18.3928 21.0834 19.3333H18.5001C18.2791 19.3333 18.0671 19.4211 17.9108 19.5774C17.7545 19.7337 17.6667 19.9457 17.6667 20.1667C17.6667 20.3877 17.7545 20.5996 17.9108 20.7559C18.0671 20.9122 18.2791 21 18.5001 21H19.3334V31.8333C19.3347 32.938 19.7741 33.997 20.5553 34.7782C21.3364 35.5593 22.3954 35.9987 23.5001 36H28.5001C29.6047 35.9987 30.6638 35.5593 31.4449 34.7782C32.226 33.997 32.6654 32.938 32.6667 31.8333V21H33.5001C33.7211 21 33.9331 20.9122 34.0893 20.7559C34.2456 20.5996 34.3334 20.3877 34.3334 20.1667C34.3334 19.9457 34.2456 19.7337 34.0893 19.5774C33.9331 19.4211 33.7211 19.3333 33.5001 19.3333ZM25.1667 17.6667H26.8334C27.3503 17.6673 27.8544 17.8278 28.2764 18.1262C28.6985 18.4246 29.0179 18.8462 29.1909 19.3333H22.8092C22.9822 18.8462 23.3017 18.4246 23.7237 18.1262C24.1458 17.8278 24.6499 17.6673 25.1667 17.6667ZM31.0001 31.8333C31.0001 32.4964 30.7367 33.1323 30.2678 33.6011C29.799 34.0699 29.1631 34.3333 28.5001 34.3333H23.5001C22.837 34.3333 22.2012 34.0699 21.7323 33.6011C21.2635 33.1323 21.0001 32.4964 21.0001 31.8333V21H31.0001V31.8333Z" fill="#4E5AFE"/>
<path d="M24.3333 30.9987C24.5543 30.9987 24.7663 30.9109 24.9226 30.7546C25.0789 30.5983 25.1667 30.3864 25.1667 30.1654V25.1654C25.1667 24.9443 25.0789 24.7324 24.9226 24.5761C24.7663 24.4198 24.5543 24.332 24.3333 24.332C24.1123 24.332 23.9004 24.4198 23.7441 24.5761C23.5878 24.7324 23.5 24.9443 23.5 25.1654V30.1654C23.5 30.3864 23.5878 30.5983 23.7441 30.7546C23.9004 30.9109 24.1123 30.9987 24.3333 30.9987Z" fill="#4E5AFE"/>
<path d="M27.6666 30.9987C27.8876 30.9987 28.0996 30.9109 28.2558 30.7546C28.4121 30.5983 28.4999 30.3864 28.4999 30.1654V25.1654C28.4999 24.9443 28.4121 24.7324 28.2558 24.5761C28.0996 24.4198 27.8876 24.332 27.6666 24.332C27.4456 24.332 27.2336 24.4198 27.0773 24.5761C26.921 24.7324 26.8333 24.9443 26.8333 25.1654V30.1654C26.8333 30.3864 26.921 30.5983 27.0773 30.7546C27.2336 30.9109 27.4456 30.9987 27.6666 30.9987Z" fill="#4E5AFE"/>
</g>
<defs>
<filter id="filter0_d_1194_35" x="0" y="0" width="52" height="52" filterUnits="userSpaceOnUse" color-interpolation-filters="sRGB">
<feFlood flood-opacity="0" result="BackgroundImageFix"/>
<feColorMatrix in="SourceAlpha" type="matrix" values="0 0 0 0 0 0 0 0 0 0 0 0 0 0 0 0 0 0 127 0" result="hardAlpha"/>
<feOffset/>
<feGaussianBlur stdDeviation="3"/>
<feComposite in2="hardAlpha" operator="out"/>
<feColorMatrix type="matrix" values="0 0 0 0 0.0901961 0 0 0 0 0.0784314 0 0 0 0 0.231373 0 0 0 0.16 0"/>
<feBlend mode="normal" in2="BackgroundImageFix" result="effect1_dropShadow_1194_35"/>
<feBlend mode="normal" in="SourceGraphic" in2="effect1_dropShadow_1194_35" result="shape"/>
</filter>
<clipPath id="clip0_1194_35">
<rect width="20" height="20" fill="white" transform="translate(16 16)"/>
</clipPath>
</defs>
</svg>
