<svg width="13" height="16" viewBox="0 0 13 16" fill="none" xmlns="http://www.w3.org/2000/svg">
<path d="M7.02355 15.8312C7.07663 15.8844 7.13968 15.9266 7.2091 15.9554C7.27852 15.9842 7.35294 15.999 7.4281 15.999C7.50326 15.999 7.57767 15.9842 7.64709 15.9554C7.71651 15.9266 7.77957 15.8844 7.83264 15.8312L12.4038 11.26C12.457 11.2069 12.4992 11.1439 12.528 11.0745C12.5568 11.0051 12.5716 10.9306 12.5716 10.8555C12.5716 10.7803 12.5568 10.7059 12.528 10.6365C12.4992 10.5671 12.457 10.504 12.4038 10.4509L7.83264 5.87979C7.72535 5.7725 7.57983 5.71222 7.4281 5.71222C7.27636 5.71222 7.13084 5.7725 7.02355 5.87979C6.91626 5.98708 6.85598 6.1326 6.85598 6.28434C6.85598 6.43607 6.91626 6.58159 7.02355 6.68888L10.6199 10.2841H3.42835C2.82218 10.2841 2.24084 10.0433 1.81221 9.61465C1.38358 9.18603 1.14278 8.60468 1.14278 7.99851V0.570415C1.14278 0.418873 1.08258 0.273536 0.975427 0.166379C0.86827 0.0592222 0.722935 -0.000976562 0.571392 -0.000976562C0.41985 -0.000976562 0.274514 0.0592222 0.167357 0.166379C0.0602002 0.273536 0 0.418873 0 0.570415V7.99851C0 8.90777 0.361201 9.77978 1.00414 10.4227C1.64708 11.0657 2.5191 11.4269 3.42835 11.4269H10.6199L7.02355 15.0221C6.97034 15.0751 6.92812 15.1382 6.89932 15.2076C6.87051 15.277 6.85568 15.3515 6.85568 15.4266C6.85568 15.5018 6.87051 15.5762 6.89932 15.6456C6.92812 15.715 6.97034 15.7781 7.02355 15.8312Z" fill="url(#paint0_linear_1136_2369)"/>
<defs>
<linearGradient id="paint0_linear_1136_2369" x1="6.28582" y1="15.999" x2="6.28582" y2="-0.000976562" gradientUnits="userSpaceOnUse">
<stop stop-color="#4E5AFE"/>
<stop offset="1" stop-color="#00F2FF"/>
</linearGradient>
</defs>
</svg>
