<svg width="24" height="16" viewBox="0 0 24 16" fill="none" xmlns="http://www.w3.org/2000/svg">
<path d="M23.9643 7.69491C23.9293 7.61598 23.0839 5.74056 21.1891 3.8458C19.435 2.09131 16.4167 0 12 0C7.58328 0 4.56507 2.09131 2.81089 3.8458C0.916131 5.74056 0.0707504 7.61598 0.0356814 7.69491C0.012156 7.74781 0 7.80506 0 7.86296C0 7.92086 0.012156 7.97811 0.0356814 8.03101C0.0707504 8.10984 0.916235 9.98474 2.81089 11.8792C4.56507 13.6333 7.58338 15.7242 12 15.7242C16.4166 15.7242 19.435 13.6333 21.1891 11.8792C23.0838 9.98474 23.9293 8.10984 23.9643 8.03091C23.9879 7.97802 24 7.92079 24 7.86291C24 7.80503 23.9879 7.7478 23.9643 7.69491ZM20.5825 11.3155C18.1955 13.6917 15.308 14.8966 12 14.8966C8.69204 14.8966 5.80448 13.6917 3.41751 11.3155C2.3976 10.3018 1.53955 9.13732 0.873407 7.86291C1.53946 6.58814 2.39755 5.42336 3.41762 4.40939C5.80459 2.03255 8.69204 0.827588 12 0.827588C15.308 0.827588 18.1954 2.03276 20.5824 4.40939C21.6024 5.42338 22.4605 6.58816 23.1266 7.86291C22.4605 9.13735 21.6025 10.3018 20.5825 11.3155ZM12 3.31118C11.0998 3.31118 10.2197 3.57813 9.4712 4.07828C8.72268 4.57843 8.13927 5.28932 7.79476 6.12104C7.45025 6.95276 7.36011 7.86796 7.53574 8.75091C7.71137 9.63386 8.14488 10.4449 8.78145 11.0815C9.41802 11.718 10.2291 12.1516 11.112 12.3272C11.995 12.5028 12.9102 12.4127 13.7419 12.0682C14.5736 11.7237 15.2845 11.1402 15.7846 10.3917C16.2848 9.64319 16.5517 8.76316 16.5517 7.86291C16.5504 6.65614 16.0704 5.49918 15.2171 4.64586C14.3637 3.79254 13.2068 3.31255 12 3.31118ZM12 11.5871C11.2634 11.5871 10.5434 11.3686 9.93099 10.9594C9.31855 10.5502 8.84122 9.96858 8.55935 9.28808C8.27748 8.60758 8.20373 7.85878 8.34742 7.13636C8.49112 6.41395 8.84581 5.75037 9.36664 5.22954C9.88747 4.70871 10.5511 4.35402 11.2735 4.21032C11.9959 4.06663 12.7447 4.14038 13.4252 4.42225C14.1057 4.70412 14.6873 5.18145 15.0965 5.79389C15.5057 6.40632 15.7242 7.12634 15.7242 7.86291C15.7231 8.85028 15.3303 9.79689 14.6322 10.4951C13.934 11.1932 12.9874 11.586 12 11.5871Z" fill="#17143B"/>
</svg>
