<svg width="20" height="15" viewBox="0 0 20 15" fill="none" xmlns="http://www.w3.org/2000/svg">
<path d="M0 2.255V4.44444H3.12667L0 2.255ZM2.59111 14.4444H7.22222V11.2017L2.59111 14.4444ZM12.7778 11.2022V14.4444H17.4083L12.7778 11.2022ZM0 10V12.1894L3.12778 10H0ZM17.4094 0H12.7778V3.24278L17.4094 0ZM20 12.19V10H16.8717L20 12.19ZM20 4.44444V2.255L16.8728 4.44444H20ZM7.22222 0H2.59111L7.22222 3.24278V0Z" fill="#00247D"/>
<path d="M13.9673 10.0006L19.3629 13.7789C19.6264 13.5074 19.8158 13.1729 19.9129 12.8072L15.9046 10.0006H13.9673ZM7.22289 10.0006H6.03345L0.638446 13.7783C0.927891 14.0728 1.299 14.2833 1.71511 14.3811L7.22289 10.5245V10.0006ZM12.7784 4.44501H13.9679L19.3629 0.667231C19.0685 0.368495 18.6953 0.159468 18.2868 0.0644531L12.7784 3.92112V4.44501ZM6.03345 4.44501L0.638446 0.667231C0.375087 0.938883 0.185565 1.27337 0.0878906 1.6389L4.09622 4.44501H6.03345Z" fill="#CF1B2B"/>
<path d="M20 8.88889H11.6667V14.4444H12.7778V11.2022L17.4083 14.4444H17.7778C18.0729 14.4445 18.3651 14.3856 18.6372 14.2712C18.9093 14.1568 19.1558 13.9893 19.3622 13.7783L13.9667 10H15.9039L19.9122 12.8067C19.9639 12.6194 20 12.4256 20 12.2222V12.19L16.8717 10H20V8.88889ZM0 8.88889V10H3.12778L0 12.1894V12.2222C0 12.8283 0.243889 13.3767 0.637778 13.7778L6.03278 10H7.22222V10.5239L1.71444 14.38C1.87778 14.4189 2.04667 14.4444 2.22222 14.4444H2.59111L7.22222 11.2017V14.4444H8.33333V8.88889H0ZM20 2.22222C20.0003 1.63999 19.7712 1.08109 19.3622 0.666667L13.9672 4.44444H12.7778V3.92056L18.2861 0.063889C18.1197 0.0230708 17.9491 0.00163225 17.7778 2.1021e-07H17.4094L12.7778 3.24278V2.1021e-07H11.6667V5.55556H20V4.44444H16.8728L20 2.255V2.22222ZM7.22222 2.1021e-07V3.24278L2.59111 2.1021e-07H2.22222C1.92701 -0.000128429 1.63476 0.0587853 1.36265 0.173275C1.09055 0.287765 0.844091 0.455519 0.637778 0.666667L6.03278 4.44444H4.09556L0.0872222 1.63833C0.0321001 1.82817 0.00276301 2.02456 0 2.22222L0 2.255L3.12667 4.44444H0V5.55556H8.33333V2.1021e-07H7.22222Z" fill="#EEEEEE"/>
<path d="M11.6667 5.55556V0H8.33333V5.55556H0V8.88889H8.33333V14.4444H11.6667V8.88889H20V5.55556H11.6667Z" fill="#CF1B2B"/>
</svg>
