<svg width="20" height="15" viewBox="0 0 20 15" fill="none" xmlns="http://www.w3.org/2000/svg">
<path d="M17.7778 0H2.22222C1.63285 0 1.06762 0.234126 0.650874 0.650874C0.234126 1.06762 0 1.63285 0 2.22222L0 7.22222H20V2.22222C20 1.63285 19.7659 1.06762 19.3491 0.650874C18.9324 0.234126 18.3671 0 17.7778 0Z" fill="#005BBB"/>
<path d="M20 12.2227C20 12.812 19.7659 13.3773 19.3491 13.794C18.9324 14.2108 18.3671 14.4449 17.7778 14.4449H2.22222C1.63285 14.4449 1.06762 14.2108 0.650874 13.794C0.234126 13.3773 0 12.812 0 12.2227V7.22266H20V12.2227Z" fill="#FFD500"/>
</svg>
