<svg width="18" height="18" viewBox="0 0 18 18" fill="none" xmlns="http://www.w3.org/2000/svg">
<path d="M0.527376 8.22651H1.37113H1.94059V1.23047C1.94059 0.551987 2.49257 0 3.17105 0H7.45315C8.13162 0 8.68361 0.551987 8.68361 1.23047V2.91796H9.94923C10.2405 2.91796 10.4766 3.15407 10.4766 3.44531C10.4766 3.73654 10.2405 3.97265 9.94923 3.97265H6.3633C6.07207 3.97265 5.83596 3.73654 5.83596 3.44531C5.83596 3.15407 6.07207 2.91796 6.3633 2.91796H7.62893V1.23047C7.62893 1.13354 7.55007 1.05469 7.45315 1.05469H3.17105C3.07413 1.05469 2.99527 1.13354 2.99527 1.23047V8.22651H16.6289H17.4727C17.7639 8.22651 18 8.46262 18 8.75385C18 9.04509 17.7639 9.2812 17.4727 9.2812H17.0476L15.853 14.414C15.6636 15.2279 15.1171 15.875 14.4008 16.2076L15.0607 17.1755C15.2248 17.4162 15.1627 17.7442 14.9221 17.9083C14.8312 17.9703 14.7278 18 14.6255 18C14.457 18 14.2914 17.9194 14.1893 17.7697L13.2915 16.453C13.2894 16.453 13.2872 16.4531 13.285 16.4531H4.71508C4.7129 16.4531 4.71072 16.453 4.70854 16.453L3.81075 17.7697C3.70866 17.9194 3.54311 18 3.37457 18C3.27227 18 3.16887 17.9703 3.07796 17.9083C2.83731 17.7442 2.77526 17.4162 2.93934 17.1755L3.59929 16.2076C2.88298 15.875 2.33641 15.2279 2.14699 14.414L0.95245 9.2812H0.527376C0.236143 9.2812 3.43323e-05 9.04509 3.43323e-05 8.75385C3.43323e-05 8.46262 0.236143 8.22651 0.527376 8.22651ZM3.17418 14.1749C3.34188 14.8953 3.97546 15.3984 4.71504 15.3984H13.285C14.0245 15.3984 14.6582 14.8953 14.8258 14.1749L15.9647 9.2812H2.03526L3.17418 14.1749Z" fill="#86858A"/>
</svg>
