<svg width="18" height="22" viewBox="0 0 18 22" fill="none" xmlns="http://www.w3.org/2000/svg">
<path d="M15.3 7.58161V6.3C15.3 2.82062 12.4794 0 9 0C5.52058 0 2.7 2.82062 2.7 6.3V7.58161C1.06203 8.29648 0.0023625 9.91285 0 11.7V17.1C0.00295313 19.5841 2.01593 21.5971 4.49998 21.6H13.5C15.984 21.5971 17.997 19.5841 18 17.1V11.7C17.9977 9.91285 16.938 8.29648 15.3 7.58161ZM9.89999 15.3C9.89999 15.7971 9.49705 16.2 9 16.2C8.50295 16.2 8.10001 15.7971 8.10001 15.3V13.5C8.10001 13.003 8.50295 12.6 9 12.6C9.49705 12.6 9.89999 13.003 9.89999 13.5V15.3ZM13.5 7.20003H4.49998V6.30004C4.49998 3.81477 6.51469 1.80002 9 1.80002C11.4853 1.80002 13.5 3.81473 13.5 6.30004V7.20003Z" fill="#86858A"/>
</svg>
