<svg width="22" height="17" viewBox="0 0 22 17" fill="none" xmlns="http://www.w3.org/2000/svg">
<path d="M17.4167 0H4.58333C3.3682 0.00145554 2.20326 0.484808 1.34403 1.34403C0.484808 2.20326 0.00145554 3.3682 0 4.58333H22C21.9985 3.3682 21.5152 2.20326 20.656 1.34403C19.7967 0.484808 18.6318 0.00145554 17.4167 0Z" fill="#86858A"/>
<path d="M0 11.917C0.00145554 13.1321 0.484808 14.2971 1.34403 15.1563C2.20326 16.0155 3.3682 16.4989 4.58333 16.5003H17.4167C18.6318 16.4989 19.7967 16.0155 20.656 15.1563C21.5152 14.2971 21.9985 13.1321 22 11.917V6.41699H0V11.917ZM6.41667 11.4587C6.41667 11.7306 6.33602 11.9964 6.18494 12.2226C6.03385 12.4487 5.81911 12.6249 5.56786 12.729C5.31661 12.8331 5.04014 12.8603 4.77342 12.8072C4.50669 12.7542 4.26169 12.6232 4.06939 12.4309C3.8771 12.2386 3.74614 11.9936 3.69309 11.7269C3.64003 11.4602 3.66726 11.1837 3.77133 10.9325C3.8754 10.6812 4.05164 10.4665 4.27776 10.3154C4.50388 10.1643 4.76972 10.0837 5.04167 10.0837C5.40634 10.0837 5.75608 10.2285 6.01394 10.4864C6.2718 10.7442 6.41667 11.094 6.41667 11.4587Z" fill="#86858A"/>
</svg>
