<svg width="24" height="16" viewBox="0 0 24 16" fill="none" xmlns="http://www.w3.org/2000/svg">
<path d="M23.4999 12H22.4746C22.2329 6.9043 18.3513 2.75493 13.3727 2.10032C13.4535 1.9162 13.5 1.71365 13.5 1.5C13.5 0.672842 12.8271 0 12 0C11.1728 0 10.5 0.672842 10.5 1.5C10.5 1.7137 10.5464 1.9162 10.6273 2.10032C5.64861 2.75493 1.76709 6.9043 1.52531 12H0.500015C0.22364 12 0 12.2236 0 12.5V13.001C0 13.7534 0.220687 14.4824 0.638671 15.1094C1.01025 15.667 1.63233 16 2.30273 16H21.6972C22.3672 16 22.9897 15.667 23.3618 15.1089C23.7793 14.4819 24 13.7534 24 13.001V12.5C24 12.2236 23.7763 12 23.4999 12ZM12 1.00003C12.2758 1.00003 12.5 1.22414 12.5 1.50004C12.5 1.7759 12.2759 2.00006 12 2.00006C11.7241 2.00006 11.5 1.77595 11.5 1.50004C11.5 1.22414 11.7241 1.00003 12 1.00003ZM12 2.99999C17.0695 2.99999 21.2121 6.99467 21.4746 12H2.52534C2.78784 6.99467 6.93046 2.99999 12 2.99999ZM23 13.001C23 13.5552 22.8374 14.0928 22.5293 14.5547C22.3432 14.8335 22.0322 15 21.6972 15H2.30273C1.96776 15 1.65623 14.8335 1.47023 14.5542C1.16259 14.0923 1.00003 13.5552 1.00003 13.001V13.0001H23V13.001Z" fill="#86858A"/>
</svg>
