<svg width="3" height="12" viewBox="0 0 3 12" fill="none" xmlns="http://www.w3.org/2000/svg">
<path d="M0.814453 10.9357C0.814453 11.2064 1.03398 11.4258 1.30476 11.4258C1.57554 11.4258 1.79506 11.2064 1.79506 10.9357C1.79506 10.2375 1.99308 9.91995 2.24386 9.51796C2.52379 9.06912 2.84105 8.56049 2.84105 7.58172C2.84105 6.60288 2.52372 6.09412 2.24386 5.64528C1.99315 5.24322 1.79506 4.92565 1.79506 4.22727C1.79506 3.52888 1.99308 3.21138 2.24386 2.80932C2.52379 2.36048 2.84105 1.85172 2.84105 0.872885C2.84105 0.602234 2.62152 0.382812 2.35074 0.382812C2.07996 0.382812 1.86044 0.602234 1.86044 0.872885C1.86044 1.57127 1.66242 1.88884 1.41165 2.29089C1.13171 2.73973 0.814453 3.2485 0.814453 4.22733C0.814453 5.20617 1.13178 5.71493 1.41165 6.16377C1.66236 6.56583 1.86044 6.8834 1.86044 7.58178C1.86044 8.28004 1.66242 8.59747 1.41171 8.99946C1.13178 9.44831 0.814453 9.957 0.814453 10.9357Z" fill="#17143B"/>
</svg>
