<svg width="170" height="64" viewBox="0 0 170 64" fill="none" xmlns="http://www.w3.org/2000/svg">
<path d="M6.02627 57V47.06H13.5303V57H12.5503V47.928H7.00627V57H6.02627ZM15.2364 54.9C15.2364 54.452 15.3671 54.0647 15.6284 53.738C15.8897 53.402 16.2491 53.1407 16.7064 52.954C17.1731 52.7673 17.7097 52.674 18.3164 52.674C18.6711 52.674 19.0397 52.7067 19.4224 52.772C19.8051 52.828 20.1457 52.9073 20.4444 53.01V52.394C20.4444 51.778 20.2624 51.288 19.8984 50.924C19.5344 50.56 19.0304 50.378 18.3864 50.378C18.0037 50.378 17.6211 50.4527 17.2384 50.602C16.8557 50.742 16.4591 50.952 16.0484 51.232L15.6844 50.56C16.1604 50.2333 16.6271 49.9907 17.0844 49.832C17.5417 49.664 18.0084 49.58 18.4844 49.58C19.3804 49.58 20.0897 49.8367 20.6124 50.35C21.1351 50.8633 21.3964 51.5727 21.3964 52.478V55.852C21.3964 56.104 21.5131 56.2347 21.7464 56.244V57C21.5411 57.028 21.3964 57.0373 21.3124 57.028C21.0791 57.0187 20.9017 56.944 20.7804 56.804C20.6591 56.664 20.5937 56.5147 20.5844 56.356L20.5704 55.824C20.2437 56.244 19.8191 56.5707 19.2964 56.804C18.7737 57.028 18.2417 57.14 17.7004 57.14C17.2244 57.14 16.7997 57.042 16.4264 56.846C16.0531 56.6407 15.7591 56.37 15.5444 56.034C15.3391 55.6887 15.2364 55.3107 15.2364 54.9ZM20.1224 55.46C20.3371 55.208 20.4444 54.9747 20.4444 54.76V53.696C19.8004 53.444 19.1284 53.318 18.4284 53.318C17.7471 53.318 17.1964 53.4533 16.7764 53.724C16.3564 53.9947 16.1464 54.3633 16.1464 54.83C16.1464 55.2313 16.3004 55.5953 16.6084 55.922C16.9257 56.2487 17.3644 56.412 17.9244 56.412C18.3817 56.412 18.8064 56.3233 19.1984 56.146C19.5997 55.9687 19.9077 55.74 20.1224 55.46ZM27.1773 57.14C26.5707 57.14 26.0247 56.9813 25.5393 56.664C25.0633 56.3467 24.6853 55.9547 24.4053 55.488V59.982H23.4533V49.706H24.3073V51.12C24.5967 50.6627 24.9793 50.294 25.4553 50.014C25.9407 49.7247 26.4633 49.58 27.0233 49.58C27.5273 49.58 27.9893 49.6873 28.4093 49.902C28.8293 50.1073 29.1933 50.3873 29.5013 50.742C29.8187 51.0967 30.0613 51.5027 30.2293 51.96C30.3973 52.408 30.4813 52.8747 30.4813 53.36C30.4813 54.0413 30.3413 54.6713 30.0613 55.25C29.7907 55.8193 29.4033 56.2767 28.8993 56.622C28.4047 56.9673 27.8307 57.14 27.1773 57.14ZM26.9113 56.3C27.4433 56.3 27.9007 56.16 28.2833 55.88C28.6753 55.5907 28.9787 55.222 29.1933 54.774C29.408 54.326 29.5153 53.8547 29.5153 53.36C29.5153 52.8373 29.394 52.352 29.1513 51.904C28.9087 51.456 28.582 51.0967 28.1713 50.826C27.77 50.5553 27.3127 50.42 26.7993 50.42C26.482 50.42 26.146 50.504 25.7913 50.672C25.446 50.8307 25.138 51.05 24.8673 51.33C24.606 51.6007 24.452 51.8993 24.4053 52.226V54.466C24.62 54.9793 24.956 55.4133 25.4133 55.768C25.8707 56.1227 26.37 56.3 26.9113 56.3ZM32.0799 57V49.706H33.0319V52.828H34.1239L36.5739 49.706H37.6659L34.8799 53.248L38.0159 57H36.8959L34.1239 53.71H33.0319V57H32.0799ZM42.0926 57.14C41.3926 57.14 40.7672 56.9673 40.2166 56.622C39.6752 56.2767 39.2506 55.8193 38.9426 55.25C38.6346 54.6713 38.4806 54.046 38.4806 53.374C38.4806 52.6927 38.6346 52.0673 38.9426 51.498C39.2599 50.9193 39.6892 50.4573 40.2306 50.112C40.7812 49.7573 41.4019 49.58 42.0926 49.58C42.7926 49.58 43.4132 49.7573 43.9546 50.112C44.5052 50.4573 44.9346 50.9193 45.2426 51.498C45.5599 52.0673 45.7186 52.6927 45.7186 53.374C45.7186 54.046 45.5646 54.6713 45.2566 55.25C44.9486 55.8193 44.5192 56.2767 43.9686 56.622C43.4272 56.9673 42.8019 57.14 42.0926 57.14ZM39.4466 53.388C39.4466 53.9293 39.5632 54.424 39.7966 54.872C40.0392 55.3107 40.3612 55.6607 40.7626 55.922C41.1639 56.174 41.6072 56.3 42.0926 56.3C42.5779 56.3 43.0212 56.1693 43.4226 55.908C43.8239 55.6467 44.1459 55.292 44.3886 54.844C44.6312 54.396 44.7526 53.9013 44.7526 53.36C44.7526 52.8187 44.6312 52.324 44.3886 51.876C44.1459 51.428 43.8239 51.0733 43.4226 50.812C43.0212 50.5507 42.5779 50.42 42.0926 50.42C41.6166 50.42 41.1779 50.5553 40.7766 50.826C40.3752 51.0873 40.0532 51.442 39.8106 51.89C39.5679 52.338 39.4466 52.8373 39.4466 53.388ZM47.2967 57V49.706H50.9367C51.3474 49.706 51.6927 49.7947 51.9727 49.972C52.2527 50.14 52.4627 50.364 52.6027 50.644C52.7521 50.9147 52.8267 51.1993 52.8267 51.498C52.8267 51.89 52.7287 52.2447 52.5327 52.562C52.3461 52.87 52.0801 53.1033 51.7347 53.262C52.1547 53.374 52.4954 53.5933 52.7567 53.92C53.0181 54.2467 53.1487 54.6293 53.1487 55.068C53.1487 55.656 52.9387 56.1273 52.5187 56.482C52.1081 56.8273 51.5807 57 50.9367 57H47.2967ZM48.2067 52.996H50.6847C51.0487 52.996 51.3427 52.8607 51.5667 52.59C51.8001 52.31 51.9167 51.9973 51.9167 51.652C51.9167 51.316 51.8047 51.022 51.5807 50.77C51.3661 50.518 51.0861 50.392 50.7407 50.392H48.2067V52.996ZM48.2067 56.314H50.9087C51.2821 56.314 51.5947 56.1787 51.8467 55.908C52.0987 55.628 52.2247 55.32 52.2247 54.984C52.2247 54.62 52.1034 54.3073 51.8607 54.046C51.6181 53.7847 51.3194 53.654 50.9647 53.654H48.2067V56.314ZM54.7889 57V49.706H55.7409V52.828H56.8329L59.2829 49.706H60.3749L57.5889 53.248L60.7249 57H59.6049L56.8329 53.71H55.7409V57H54.7889ZM61.461 54.9C61.461 54.452 61.5917 54.0647 61.853 53.738C62.1144 53.402 62.4737 53.1407 62.931 52.954C63.3977 52.7673 63.9344 52.674 64.541 52.674C64.8957 52.674 65.2644 52.7067 65.647 52.772C66.0297 52.828 66.3704 52.9073 66.669 53.01V52.394C66.669 51.778 66.487 51.288 66.123 50.924C65.759 50.56 65.255 50.378 64.611 50.378C64.2284 50.378 63.8457 50.4527 63.463 50.602C63.0804 50.742 62.6837 50.952 62.273 51.232L61.909 50.56C62.385 50.2333 62.8517 49.9907 63.309 49.832C63.7664 49.664 64.233 49.58 64.709 49.58C65.605 49.58 66.3144 49.8367 66.837 50.35C67.3597 50.8633 67.621 51.5727 67.621 52.478V55.852C67.621 56.104 67.7377 56.2347 67.971 56.244V57C67.7657 57.028 67.621 57.0373 67.537 57.028C67.3037 57.0187 67.1264 56.944 67.005 56.804C66.8837 56.664 66.8184 56.5147 66.809 56.356L66.795 55.824C66.4684 56.244 66.0437 56.5707 65.521 56.804C64.9984 57.028 64.4664 57.14 63.925 57.14C63.449 57.14 63.0244 57.042 62.651 56.846C62.2777 56.6407 61.9837 56.37 61.769 56.034C61.5637 55.6887 61.461 55.3107 61.461 54.9ZM66.347 55.46C66.5617 55.208 66.669 54.9747 66.669 54.76V53.696C66.025 53.444 65.353 53.318 64.653 53.318C63.9717 53.318 63.421 53.4533 63.001 53.724C62.581 53.9947 62.371 54.3633 62.371 54.83C62.371 55.2313 62.525 55.5953 62.833 55.922C63.1504 56.2487 63.589 56.412 64.149 56.412C64.6064 56.412 65.031 56.3233 65.423 56.146C65.8244 55.9687 66.1324 55.74 66.347 55.46ZM76.5923 57.14C75.4163 57.14 74.525 56.7807 73.9183 56.062C73.321 55.334 73.0223 54.3307 73.0223 53.052C73.0223 52.1467 73.097 51.3813 73.2463 50.756C73.3956 50.1307 73.615 49.6127 73.9043 49.202C74.1936 48.7913 74.5483 48.46 74.9683 48.208C75.3976 47.9467 75.8876 47.732 76.4383 47.564L79.5043 46.556L79.5883 47.382L76.6343 48.348C76.0743 48.544 75.603 48.782 75.2203 49.062C74.847 49.342 74.553 49.7107 74.3383 50.168C74.133 50.616 74.0023 51.19 73.9463 51.89C74.1796 51.3487 74.5483 50.9333 75.0523 50.644C75.5656 50.3453 76.1536 50.196 76.8163 50.196C77.5256 50.196 78.1276 50.3407 78.6223 50.63C79.1263 50.9193 79.509 51.3207 79.7703 51.834C80.0316 52.3473 80.1623 52.94 80.1623 53.612C80.1623 54.676 79.8543 55.53 79.2383 56.174C78.6316 56.818 77.7496 57.14 76.5923 57.14ZM76.5923 56.3C77.423 56.3 78.0623 56.062 78.5103 55.586C78.9676 55.1007 79.1963 54.4567 79.1963 53.654C79.1963 52.87 78.9723 52.2307 78.5243 51.736C78.0763 51.2413 77.4323 50.994 76.5923 50.994C76.107 50.994 75.6683 51.0967 75.2763 51.302C74.8843 51.5073 74.5716 51.806 74.3383 52.198C74.1143 52.59 74.0023 53.0753 74.0023 53.654C74.0023 54.4193 74.2216 55.054 74.6603 55.558C75.1083 56.0527 75.7523 56.3 76.5923 56.3ZM81.0639 57.042V56.174C81.3065 56.174 81.5259 56.1087 81.7219 55.978C81.9272 55.8473 82.1045 55.6187 82.2539 55.292C82.4125 54.9653 82.5385 54.5127 82.6319 53.934C82.7252 53.3553 82.7859 52.6227 82.8139 51.736L82.8979 49.706H87.6299V57H86.6779V50.56H83.7379L83.7099 51.82C83.6632 53.1733 83.5372 54.228 83.3319 54.984C83.1265 55.74 82.8325 56.272 82.4499 56.58C82.0765 56.8787 81.6145 57.0327 81.0639 57.042ZM89.7206 57V49.72H90.6726V55.712L95.1106 49.706H95.9646V57H95.0126V51.106L90.6446 57H89.7206ZM100.161 57.084C99.4891 57.084 98.9104 56.958 98.4251 56.706C97.9491 56.4447 97.5897 56.0807 97.3471 55.614L98.1311 55.264C98.3084 55.5907 98.5651 55.8473 98.9011 56.034C99.2371 56.2113 99.6431 56.3 100.119 56.3C100.688 56.3 101.141 56.1693 101.477 55.908C101.822 55.6467 101.995 55.2967 101.995 54.858C101.995 54.466 101.86 54.144 101.589 53.892C101.318 53.64 100.945 53.514 100.469 53.514H99.7271V52.856H100.525C100.833 52.856 101.09 52.7393 101.295 52.506C101.51 52.2633 101.617 51.9647 101.617 51.61C101.617 51.246 101.486 50.952 101.225 50.728C100.973 50.504 100.6 50.392 100.105 50.392C99.3024 50.392 98.7377 50.714 98.4111 51.358L97.6831 50.966C97.8977 50.5367 98.2151 50.2007 98.6351 49.958C99.0551 49.7153 99.5544 49.594 100.133 49.594C100.824 49.594 101.388 49.7667 101.827 50.112C102.266 50.448 102.485 50.9147 102.485 51.512C102.485 51.8573 102.401 52.1793 102.233 52.478C102.065 52.7767 101.832 52.996 101.533 53.136C101.962 53.276 102.294 53.5093 102.527 53.836C102.77 54.1533 102.891 54.5313 102.891 54.97C102.891 55.6327 102.634 56.1507 102.121 56.524C101.608 56.8973 100.954 57.084 100.161 57.084ZM104.473 57V49.706H105.425V52.828H106.517L108.967 49.706H110.059L107.273 53.248L110.409 57H109.289L106.517 53.71H105.425V57H104.473ZM114.485 57.14C113.785 57.14 113.16 56.9673 112.609 56.622C112.068 56.2767 111.643 55.8193 111.335 55.25C111.027 54.6713 110.873 54.046 110.873 53.374C110.873 52.6927 111.027 52.0673 111.335 51.498C111.652 50.9193 112.082 50.4573 112.623 50.112C113.174 49.7573 113.794 49.58 114.485 49.58C115.185 49.58 115.806 49.7573 116.347 50.112C116.898 50.4573 117.327 50.9193 117.635 51.498C117.952 52.0673 118.111 52.6927 118.111 53.374C118.111 54.046 117.957 54.6713 117.649 55.25C117.341 55.8193 116.912 56.2767 116.361 56.622C115.82 56.9673 115.194 57.14 114.485 57.14ZM111.839 53.388C111.839 53.9293 111.956 54.424 112.189 54.872C112.432 55.3107 112.754 55.6607 113.155 55.922C113.556 56.174 114 56.3 114.485 56.3C114.97 56.3 115.414 56.1693 115.815 55.908C116.216 55.6467 116.538 55.292 116.781 54.844C117.024 54.396 117.145 53.9013 117.145 53.36C117.145 52.8187 117.024 52.324 116.781 51.876C116.538 51.428 116.216 51.0733 115.815 50.812C115.414 50.5507 114.97 50.42 114.485 50.42C114.009 50.42 113.57 50.5553 113.169 50.826C112.768 51.0873 112.446 51.442 112.203 51.89C111.96 52.338 111.839 52.8373 111.839 53.388ZM123.258 57V49.706H124.21V52.828H125.302L127.752 49.706H128.844L126.058 53.248L129.194 57H128.074L125.302 53.71H124.21V57H123.258ZM134.099 57V49.706H137.739C138.15 49.706 138.495 49.7947 138.775 49.972C139.055 50.14 139.265 50.364 139.405 50.644C139.555 50.9147 139.629 51.1993 139.629 51.498C139.629 51.89 139.531 52.2447 139.335 52.562C139.149 52.87 138.883 53.1033 138.537 53.262C138.957 53.374 139.298 53.5933 139.559 53.92C139.821 54.2467 139.951 54.6293 139.951 55.068C139.951 55.656 139.741 56.1273 139.321 56.482C138.911 56.8273 138.383 57 137.739 57H134.099ZM135.009 52.996H137.487C137.851 52.996 138.145 52.8607 138.369 52.59C138.603 52.31 138.719 51.9973 138.719 51.652C138.719 51.316 138.607 51.022 138.383 50.77C138.169 50.518 137.889 50.392 137.543 50.392H135.009V52.996ZM135.009 56.314H137.711C138.085 56.314 138.397 56.1787 138.649 55.908C138.901 55.628 139.027 55.32 139.027 54.984C139.027 54.62 138.906 54.3073 138.663 54.046C138.421 53.7847 138.122 53.654 137.767 53.654H135.009V56.314ZM144.714 57.14C144.014 57.14 143.388 56.9673 142.838 56.622C142.296 56.2767 141.872 55.8193 141.564 55.25C141.256 54.6713 141.102 54.046 141.102 53.374C141.102 52.6927 141.256 52.0673 141.564 51.498C141.881 50.9193 142.31 50.4573 142.852 50.112C143.402 49.7573 144.023 49.58 144.714 49.58C145.414 49.58 146.034 49.7573 146.576 50.112C147.126 50.4573 147.556 50.9193 147.864 51.498C148.181 52.0673 148.34 52.6927 148.34 53.374C148.34 54.046 148.186 54.6713 147.878 55.25C147.57 55.8193 147.14 56.2767 146.59 56.622C146.048 56.9673 145.423 57.14 144.714 57.14ZM142.068 53.388C142.068 53.9293 142.184 54.424 142.418 54.872C142.66 55.3107 142.982 55.6607 143.384 55.922C143.785 56.174 144.228 56.3 144.714 56.3C145.199 56.3 145.642 56.1693 146.044 55.908C146.445 55.6467 146.767 55.292 147.01 54.844C147.252 54.396 147.374 53.9013 147.374 53.36C147.374 52.8187 147.252 52.324 147.01 51.876C146.767 51.428 146.445 51.0733 146.044 50.812C145.642 50.5507 145.199 50.42 144.714 50.42C144.238 50.42 143.799 50.5553 143.398 50.826C142.996 51.0873 142.674 51.442 142.432 51.89C142.189 52.338 142.068 52.8373 142.068 53.388ZM149.12 58.694V56.146H149.246C149.526 56.146 149.778 56.0247 150.002 55.782C150.226 55.5393 150.408 55.1007 150.548 54.466C150.697 53.822 150.786 52.912 150.814 51.736L150.884 49.706H155.63V56.146H156.61V58.694H155.756V57H149.96V58.694H149.12ZM150.688 56.146H154.678V50.56H151.738L151.696 51.82C151.649 53.1267 151.542 54.116 151.374 54.788C151.206 55.4507 150.977 55.9033 150.688 56.146ZM161.203 57.14C160.503 57.14 159.878 56.9673 159.327 56.622C158.776 56.2767 158.342 55.8147 158.025 55.236C157.708 54.6573 157.549 54.0227 157.549 53.332C157.549 52.6507 157.703 52.0253 158.011 51.456C158.328 50.8867 158.762 50.434 159.313 50.098C159.864 49.7527 160.489 49.58 161.189 49.58C161.908 49.58 162.538 49.7527 163.079 50.098C163.62 50.4433 164.04 50.9007 164.339 51.47C164.647 52.03 164.801 52.646 164.801 53.318C164.801 53.4673 164.796 53.5933 164.787 53.696H158.543C158.59 54.2187 158.739 54.6853 158.991 55.096C159.243 55.4973 159.565 55.8193 159.957 56.062C160.349 56.2953 160.778 56.412 161.245 56.412C161.721 56.412 162.169 56.2907 162.589 56.048C163.009 55.8053 163.308 55.488 163.485 55.096L164.311 55.32C164.162 55.6747 163.928 55.992 163.611 56.272C163.303 56.5427 162.944 56.7573 162.533 56.916C162.122 57.0653 161.679 57.14 161.203 57.14ZM158.515 53.01H163.905C163.868 52.4873 163.723 52.0253 163.471 51.624C163.219 51.2133 162.897 50.896 162.505 50.672C162.113 50.4387 161.679 50.322 161.203 50.322C160.727 50.322 160.293 50.4387 159.901 50.672C159.509 50.896 159.187 51.2133 158.935 51.624C158.692 52.0253 158.552 52.4873 158.515 53.01Z" fill="#17143B"/>
<path d="M78.763 5.39286C78.7557 6.13872 78.5592 6.87408 78.1944 7.51886C77.8973 8.04401 78.7127 8.50641 79.0103 7.98053C79.453 7.19781 79.6917 6.30596 79.7003 5.4019C79.7142 3.97293 79.1707 2.62404 78.17 1.60377C77.1693 0.583501 75.8311 0.0141602 74.4022 0.000244142C74.3843 0 74.3672 0 74.3494 0C71.4236 0 69.0286 2.36598 69.0003 5.29838C68.9863 6.72735 69.53 8.07599 70.5305 9.09626C71.4358 10.0191 72.6172 10.5714 73.8919 10.679V22.0541C73.1011 22.2619 72.5159 22.9826 72.5159 23.8376V31.53C72.5159 31.7891 72.7259 31.9988 72.9847 31.9988H75.7364C75.9952 31.9988 76.2051 31.7891 76.2051 31.53V23.8376C76.2051 22.9831 75.6207 22.2626 74.8294 22.0546V10.6781C75.6656 10.6036 76.4715 10.3348 77.1859 9.88753C77.6971 9.56746 77.2005 8.77228 76.6886 9.09309C75.9759 9.53913 75.1505 9.76912 74.3077 9.76253C73.129 9.75105 72.0252 9.28132 71.2 8.43976C70.3745 7.59845 69.9263 6.48589 69.9378 5.30741C69.9612 2.88869 71.9361 0.937507 74.3497 0.937507H74.3931C75.5716 0.948982 76.6754 1.41871 77.5008 2.26027C78.326 3.10183 78.7745 4.21414 78.763 5.39286ZM75.2676 23.8376V31.0613H73.4534V23.8376C73.4534 23.3378 73.8599 22.9313 74.3614 22.9313C74.8611 22.9313 75.2676 23.3378 75.2676 23.8376Z" fill="#17143B"/>
<path d="M73.1963 2.93445C73.1946 2.93445 73.1931 2.93445 73.1917 2.93445C72.9348 2.93445 72.7254 3.14124 72.7229 3.39856L72.6836 7.47355C72.6778 8.0756 73.615 8.09367 73.6209 7.48258L73.6309 6.46402L74.4966 6.47232C75.4703 6.48355 76.2669 5.69887 76.2764 4.72694C76.2808 4.25624 76.1019 3.8119 75.7723 3.47571C75.4424 3.13953 75.0018 2.95203 74.5308 2.94739L73.1963 2.93445ZM75.3389 4.71766C75.3345 5.17275 74.9595 5.54165 74.5059 5.53481L73.6399 5.52651L73.6558 3.87635L74.5218 3.88465C74.7422 3.88685 74.9485 3.97474 75.1028 4.13197C75.2571 4.28944 75.3411 4.49745 75.3389 4.71766Z" fill="#17143B"/>
<path d="M85.6616 18.3446C84.1896 18.3446 82.9922 19.5526 82.9922 21.0373C82.9922 22.5223 84.1896 23.7303 85.6616 23.7303C87.1333 23.7303 88.3308 22.5223 88.3308 21.0373C88.3308 19.5526 87.1333 18.3446 85.6616 18.3446ZM85.6616 22.5403C84.8457 22.5403 84.1822 21.866 84.1822 21.0373C84.1822 20.2086 84.8457 19.5346 85.6616 19.5346C86.4773 19.5346 87.1408 20.2086 87.1408 21.0373C87.1408 21.866 86.4773 22.5403 85.6616 22.5403Z" fill="#17143B"/>
<path d="M100.968 18.3446C99.4958 18.3446 98.2983 19.5526 98.2983 21.0373C98.2983 22.5223 99.4958 23.7303 100.968 23.7303C102.439 23.7303 103.637 22.5223 103.637 21.0373C103.637 19.5526 102.439 18.3446 100.968 18.3446ZM100.968 22.5403C100.152 22.5403 99.4883 21.866 99.4883 21.0373C99.4883 20.2086 100.152 19.5346 100.968 19.5346C101.783 19.5346 102.447 20.2086 102.447 21.0373C102.447 21.866 101.783 22.5403 100.968 22.5403Z" fill="#17143B"/>
<path d="M106.892 24.6503V19.943C106.892 18.9628 106.516 18.0691 105.9 17.3981C105.988 17.3876 106.077 17.3746 106.166 17.3566C107.567 17.0786 108.503 16.0287 108.296 14.9667C108.214 14.5421 107.962 14.1774 107.567 13.9121C107.002 13.5331 106.221 13.4063 105.424 13.5644C104.892 13.6704 104.427 13.8876 104.066 14.1749L103.105 10.1097C102.824 8.92212 101.782 8.09253 100.572 8.09253H86.2728C85.0626 8.09253 84.021 8.92212 83.74 10.1097L82.7787 14.1746C82.4176 13.8876 81.9528 13.6701 81.4201 13.5644C80.623 13.406 79.8421 13.5331 79.2778 13.9121C78.8829 14.1774 78.6304 14.5421 78.5479 14.9667C78.3419 16.0287 79.2778 17.0786 80.6788 17.3566C80.7677 17.3743 80.8561 17.3873 80.9444 17.3981C80.3286 18.0691 79.9524 18.9628 79.9524 19.943V24.6503C79.1705 24.8908 78.6006 25.6197 78.6006 26.4794C78.6006 27.3344 79.1646 28.0601 79.94 28.3047V30.4693C79.94 31.3643 80.6683 32.0925 81.5629 32.0925H83.6557C84.5503 32.0925 85.2786 31.3643 85.2786 30.4693V28.393H87.3797C88.1455 28.393 88.1467 27.203 87.3797 27.203H80.5142C80.1154 27.203 79.7906 26.8782 79.7906 26.4794C79.7906 26.0805 80.1154 25.7557 80.5142 25.7557H106.33C106.729 25.7557 107.054 26.0805 107.054 26.4794C107.054 26.8782 106.729 27.203 106.33 27.203H90.6324C89.8666 27.203 89.8654 28.393 90.6324 28.393H101.684V30.4693C101.684 31.3643 102.413 32.0925 103.307 32.0925H105.4C106.295 32.0925 107.023 31.3643 107.023 30.4693V28.2625C107.736 27.9842 108.244 27.2904 108.244 26.4794C108.244 25.6197 107.674 24.8908 106.892 24.6503ZM84.0886 30.4696C84.0886 30.7082 83.8943 30.9025 83.6557 30.9025H81.5629C81.3243 30.9025 81.13 30.7082 81.13 30.4696V28.3995H84.0886V30.4696ZM105.656 14.7318C105.8 14.703 105.945 14.689 106.084 14.689C106.404 14.689 106.698 14.7621 106.903 14.9C107.031 14.9862 107.107 15.0847 107.128 15.1932C107.195 15.5384 106.699 16.0377 105.934 16.1895C105.459 16.2837 104.982 16.2193 104.687 16.0213C104.559 15.9351 104.483 15.8362 104.462 15.7278C104.395 15.3829 104.891 14.8833 105.656 14.7318ZM79.7163 15.1932C79.7373 15.0847 79.8129 14.9862 79.9412 14.9C80.1464 14.7621 80.4402 14.689 80.7597 14.689C80.8994 14.689 81.0442 14.703 81.1883 14.7318C81.9531 14.8833 82.4495 15.3829 82.3826 15.7278C82.3615 15.8362 82.2859 15.9351 82.1576 16.0213C81.8629 16.2193 81.3851 16.2837 80.9106 16.1895C80.1458 16.0377 79.6493 15.5384 79.7163 15.1932ZM81.1424 24.5661V19.943C81.1424 18.5556 82.2438 17.4214 83.6182 17.3674H97.5341C98.3082 17.3674 98.3101 16.1747 97.5341 16.1747C93.4314 16.1747 84.0936 16.1675 83.5277 16.1774L84.898 10.3836C85.0514 9.7353 85.6167 9.28254 86.2728 9.28254H100.572C101.228 9.28254 101.793 9.7353 101.946 10.3836L103.316 16.1774C102.474 16.1846 101.63 16.1747 100.786 16.1747C100.012 16.1747 100.011 17.3674 100.786 17.3674H103.226C104.601 17.4214 105.702 18.5556 105.702 19.943V24.5661H81.1424ZM105.833 30.4696C105.833 30.7082 105.639 30.9025 105.4 30.9025H103.308C103.069 30.9025 102.875 30.7082 102.875 30.4696V28.3995H105.833V30.4696H105.833Z" fill="#17143B"/>
</svg>
