<svg width="20" height="15" viewBox="0 0 20 15" fill="none" xmlns="http://www.w3.org/2000/svg">
<path d="M20 12.2222C20 12.8116 19.7659 13.3768 19.3491 13.7936C18.9324 14.2103 18.3671 14.4444 17.7778 14.4444H2.22222C1.63285 14.4444 1.06762 14.2103 0.650874 13.7936C0.234126 13.3768 0 12.8116 0 12.2222V10H20V12.2222Z" fill="#CE2028"/>
<path d="M0 4.44434H20V9.99989H0V4.44434Z" fill="#22408C"/>
<path d="M17.7778 0H2.22222C1.63285 0 1.06762 0.234126 0.650874 0.650874C0.234126 1.06762 0 1.63285 0 2.22222L0 4.44444H20V2.22222C20 1.63285 19.7659 1.06762 19.3491 0.650874C18.9324 0.234126 18.3671 0 17.7778 0Z" fill="#EEEEEE"/>
</svg>
